<svg xmlns="http://www.w3.org/2000/svg" width="66" height="54" viewBox="0 0 66 54" fill="none"><path fill-rule="evenodd" clip-rule="evenodd" d="M28.2585 21.2669H32.5945V12.7469H28.2585C27.6996 12.7473 27.1463 12.858 26.6303 13.0727C26.1142 13.2874 25.6457 13.6018 25.2515 13.9979C24.8552 14.3929 24.5408 14.8621 24.3263 15.3788C24.1118 15.8955 24.0014 16.4495 24.0015 17.0089C24.0046 18.1371 24.4541 19.2181 25.2517 20.016C26.0494 20.8138 27.1303 21.2635 28.2585 21.2669ZM38.0345 12.8339C37.4674 12.8217 36.9036 12.9227 36.3761 13.1312C35.8486 13.3398 35.3681 13.6515 34.9627 14.0482C34.5573 14.4449 34.2352 14.9186 34.0153 15.4414C33.7954 15.9643 33.6822 16.5257 33.6822 17.0929C33.6822 17.6601 33.7954 18.2216 34.0153 18.7445C34.2352 19.2673 34.5573 19.741 34.9627 20.1377C35.3681 20.5344 35.8486 20.8461 36.3761 21.0546C36.9036 21.2632 37.4674 21.3642 38.0345 21.3519C39.148 21.3278 40.2079 20.8685 40.9869 20.0724C41.7659 19.2763 42.2022 18.2068 42.2022 17.0929C42.2022 15.9791 41.7659 14.9096 40.9869 14.1135C40.2079 13.3174 39.148 12.8581 38.0345 12.8339Z" fill="white"></path><path opacity="0.5" fill-rule="evenodd" clip-rule="evenodd" d="M32.5863 22.481H28.1753V22.49C27.0469 22.5112 25.9732 22.9798 25.1903 23.7926C24.4074 24.6055 23.9795 25.6961 24.0008 26.8245C24.022 27.9528 24.4906 29.0265 25.3034 29.8094C26.1163 30.5923 27.2069 31.0202 28.3353 30.999C29.4269 30.9988 30.4767 30.5792 31.2677 29.8269C32.0587 29.0746 32.5304 28.0472 32.5853 26.957H32.5863V26.909C32.5893 26.853 32.5953 26.797 32.5953 26.741C32.5953 26.684 32.5893 26.628 32.5863 26.571V22.481V22.481Z" fill="white"></path><path d="M32.443 3H28.615C26.077 3 24 4.9 24 7.221C24 9.543 26.077 11.443 28.615 11.443H32.443V3Z" fill="white"></path><path opacity="0.5" d="M34.0532 11.443H37.8832C40.4202 11.443 42.4962 9.543 42.4962 7.221C42.4962 4.9 40.4192 3 37.8832 3H34.0532V11.443Z" fill="white"></path><path d="M16.8596 51V42.2727H22.0925V43.2102H17.9164V46.1591H21.7005V47.0966H17.9164V51H16.8596ZM23.7662 51V44.4545H24.7718V51H23.7662ZM24.2775 43.3636C24.0815 43.3636 23.9125 43.2969 23.7704 43.1634C23.6312 43.0298 23.5616 42.8693 23.5616 42.6818C23.5616 42.4943 23.6312 42.3338 23.7704 42.2003C23.9125 42.0668 24.0815 42 24.2775 42C24.4735 42 24.6412 42.0668 24.7804 42.2003C24.9224 42.3338 24.9934 42.4943 24.9934 42.6818C24.9934 42.8693 24.9224 43.0298 24.7804 43.1634C24.6412 43.2969 24.4735 43.3636 24.2775 43.3636ZM29.2559 53.5909C28.7701 53.5909 28.3525 53.5284 28.003 53.4034C27.6536 53.2812 27.3624 53.1193 27.1294 52.9176C26.8993 52.7188 26.7161 52.5057 26.5797 52.2784L27.3809 51.7159C27.4718 51.8352 27.5868 51.9716 27.726 52.125C27.8652 52.2812 28.0556 52.4162 28.2971 52.5298C28.5414 52.6463 28.861 52.7045 29.2559 52.7045C29.7843 52.7045 30.2203 52.5767 30.5641 52.321C30.9078 52.0653 31.0797 51.6648 31.0797 51.1193V49.7898H30.9945C30.9206 49.9091 30.8155 50.0568 30.6792 50.233C30.5456 50.4062 30.3525 50.5611 30.0996 50.6974C29.8496 50.831 29.5115 50.8977 29.0854 50.8977C28.557 50.8977 28.0826 50.7727 27.6621 50.5227C27.2445 50.2727 26.9135 49.9091 26.6692 49.4318C26.4277 48.9545 26.307 48.375 26.307 47.6932C26.307 47.0227 26.4249 46.4389 26.6607 45.9418C26.8965 45.4418 27.2246 45.0554 27.6451 44.7827C28.0655 44.5071 28.5513 44.3693 29.1025 44.3693C29.5286 44.3693 29.8667 44.4403 30.1167 44.5824C30.3695 44.7216 30.5627 44.8807 30.6962 45.0597C30.8326 45.2358 30.9377 45.3807 31.0115 45.4943H31.1138V44.4545H32.0854V51.1875C32.0854 51.75 31.9576 52.2074 31.7019 52.5597C31.449 52.9148 31.1081 53.1747 30.6792 53.3395C30.253 53.5071 29.7786 53.5909 29.2559 53.5909ZM29.2218 49.9943C29.6252 49.9943 29.9661 49.902 30.2445 49.7173C30.5229 49.5327 30.7346 49.267 30.8794 48.9205C31.0243 48.5739 31.0968 48.1591 31.0968 47.6761C31.0968 47.2045 31.0257 46.7884 30.8837 46.4276C30.7417 46.0668 30.5314 45.7841 30.253 45.5795C29.9746 45.375 29.6309 45.2727 29.2218 45.2727C28.7956 45.2727 28.4405 45.3807 28.1564 45.5966C27.8752 45.8125 27.6635 46.1023 27.5215 46.4659C27.3823 46.8295 27.3127 47.233 27.3127 47.6761C27.3127 48.1307 27.3837 48.5327 27.5257 48.8821C27.6706 49.2287 27.8837 49.5014 28.165 49.7003C28.449 49.8963 28.8013 49.9943 29.2218 49.9943ZM33.9263 51V44.4545H34.8979V45.4773H34.9831C35.1195 45.1278 35.3397 44.8565 35.6436 44.6634C35.9476 44.4673 36.3127 44.3693 36.7388 44.3693C37.1706 44.3693 37.53 44.4673 37.8169 44.6634C38.1067 44.8565 38.3326 45.1278 38.4945 45.4773H38.5627C38.7303 45.1392 38.9817 44.8707 39.3169 44.6719C39.6522 44.4702 40.0542 44.3693 40.5229 44.3693C41.1081 44.3693 41.5868 44.5526 41.959 44.919C42.3311 45.2827 42.5172 45.8494 42.5172 46.6193V51H41.5115V46.6193C41.5115 46.1364 41.3794 45.7912 41.1152 45.5838C40.851 45.3764 40.54 45.2727 40.182 45.2727C39.7218 45.2727 39.3652 45.4119 39.1124 45.6903C38.8596 45.9659 38.7331 46.3153 38.7331 46.7386V51H37.7104V46.517C37.7104 46.1449 37.5897 45.8452 37.3482 45.6179C37.1067 45.3878 36.7956 45.2727 36.415 45.2727C36.1536 45.2727 35.9093 45.3423 35.682 45.4815C35.4576 45.6207 35.2757 45.8139 35.1365 46.0611C35.0002 46.3054 34.932 46.5881 34.932 46.9091V51H33.9263ZM46.2821 51.1534C45.8674 51.1534 45.4909 51.0753 45.1529 50.919C44.8148 50.7599 44.5463 50.5312 44.3475 50.233C44.1486 49.9318 44.0492 49.5682 44.0492 49.142C44.0492 48.767 44.123 48.4631 44.2708 48.2301C44.4185 47.9943 44.6159 47.8097 44.8631 47.6761C45.1103 47.5426 45.383 47.4432 45.6813 47.3778C45.9824 47.3097 46.285 47.2557 46.589 47.2159C46.9867 47.1648 47.3091 47.1264 47.5563 47.1009C47.8063 47.0724 47.9881 47.0256 48.1017 46.9602C48.2182 46.8949 48.2765 46.7812 48.2765 46.6193V46.5852C48.2765 46.1648 48.1614 45.8381 47.9313 45.6051C47.704 45.3722 47.3588 45.2557 46.8958 45.2557C46.4157 45.2557 46.0392 45.3608 45.7665 45.571C45.4938 45.7812 45.302 46.0057 45.1912 46.2443L44.2367 45.9034C44.4071 45.5057 44.6344 45.196 44.9185 44.9744C45.2054 44.75 45.5179 44.5937 45.856 44.5057C46.1969 44.4148 46.5321 44.3693 46.8617 44.3693C47.0719 44.3693 47.3134 44.3949 47.5861 44.446C47.8617 44.4943 48.1273 44.5952 48.383 44.7486C48.6415 44.902 48.856 45.1335 49.0265 45.4432C49.1969 45.7528 49.2821 46.1676 49.2821 46.6875V51H48.2765V50.1136H48.2253C48.1571 50.2557 48.0435 50.4077 47.8844 50.5696C47.7253 50.7315 47.5137 50.8693 47.2495 50.983C46.9853 51.0966 46.6628 51.1534 46.2821 51.1534ZM46.4355 50.25C46.8333 50.25 47.1685 50.1719 47.4412 50.0156C47.7168 49.8594 47.9242 49.6577 48.0634 49.4105C48.2054 49.1634 48.2765 48.9034 48.2765 48.6307V47.7102C48.2338 47.7614 48.1401 47.8082 47.9952 47.8509C47.8532 47.8906 47.6884 47.9261 47.5009 47.9574C47.3162 47.9858 47.1358 48.0114 46.9597 48.0341C46.7864 48.054 46.6458 48.071 46.5378 48.0852C46.2765 48.1193 46.0321 48.1747 45.8049 48.2514C45.5804 48.3253 45.3986 48.4375 45.2594 48.5881C45.123 48.7358 45.0549 48.9375 45.0549 49.1932C45.0549 49.5426 45.1841 49.8068 45.4426 49.9858C45.704 50.1619 46.035 50.25 46.4355 50.25Z" fill="#CFCFE7"></path></svg>