<svg xmlns="http://www.w3.org/2000/svg" width="66" height="54" viewBox="0 0 66 54" fill="none"><g clip-path="url(#clip0_2626_4716)"><path d="M20.5 4.5H45.5V29.5H20.5V4.5Z" stroke="white"></path><path d="M37.7168 7.46667H34.9413L37.4053 11.2854L32.1961 7.46667H29.4206L31.8847 12.4706L26.6754 7.46667H23.8999L26.3233 13.9266L23.8999 26.5333H26.6754L31.8847 13.0161L29.4206 26.5333H32.1961L37.4053 11.8314L34.9413 26.5333H37.7168L42.9667 10.3835L37.7168 7.46667Z" fill="white"></path></g><path d="M21.5822 42.2727H22.8436L25.8095 49.517H25.9118L28.8777 42.2727H30.139V51H29.1504V44.3693H29.0652L26.3379 51H25.3833L22.6561 44.3693H22.5708V51H21.5822V42.2727ZM32.1216 51V44.4545H33.1273V51H32.1216ZM32.633 43.3636C32.437 43.3636 32.2679 43.2969 32.1259 43.1634C31.9867 43.0298 31.9171 42.8693 31.9171 42.6818C31.9171 42.4943 31.9867 42.3338 32.1259 42.2003C32.2679 42.0668 32.437 42 32.633 42C32.829 42 32.9966 42.0668 33.1358 42.2003C33.2779 42.3338 33.3489 42.4943 33.3489 42.6818C33.3489 42.8693 33.2779 43.0298 33.1358 43.1634C32.9966 43.2969 32.829 43.3636 32.633 43.3636ZM34.9693 51V44.4545H35.9409V45.4432H36.0091C36.1284 45.1193 36.3443 44.8565 36.6568 44.6548C36.9693 44.4531 37.3216 44.3523 37.7136 44.3523C37.7875 44.3523 37.8798 44.3537 37.9906 44.3565C38.1014 44.3594 38.1852 44.3636 38.242 44.3693V45.392C38.2079 45.3835 38.1298 45.3707 38.0076 45.3537C37.8883 45.3338 37.7619 45.3239 37.6284 45.3239C37.3102 45.3239 37.0261 45.3906 36.7761 45.5241C36.5289 45.6548 36.3329 45.8366 36.188 46.0696C36.046 46.2997 35.975 46.5625 35.975 46.858V51H34.9693ZM41.894 51.1364C41.3031 51.1364 40.7846 50.9957 40.3386 50.7145C39.8954 50.4332 39.5488 50.0398 39.2988 49.5341C39.0517 49.0284 38.9281 48.4375 38.9281 47.7614C38.9281 47.0795 39.0517 46.4844 39.2988 45.9759C39.5488 45.4673 39.8954 45.0724 40.3386 44.7912C40.7846 44.5099 41.3031 44.3693 41.894 44.3693C42.4849 44.3693 43.002 44.5099 43.4451 44.7912C43.8912 45.0724 44.2377 45.4673 44.4849 45.9759C44.7349 46.4844 44.8599 47.0795 44.8599 47.7614C44.8599 48.4375 44.7349 49.0284 44.4849 49.5341C44.2377 50.0398 43.8912 50.4332 43.4451 50.7145C43.002 50.9957 42.4849 51.1364 41.894 51.1364ZM41.894 50.233C42.3429 50.233 42.7122 50.1179 43.002 49.8878C43.2917 49.6577 43.5062 49.3551 43.6454 48.9801C43.7846 48.6051 43.8542 48.1989 43.8542 47.7614C43.8542 47.3239 43.7846 46.9162 43.6454 46.5384C43.5062 46.1605 43.2917 45.8551 43.002 45.6222C42.7122 45.3892 42.3429 45.2727 41.894 45.2727C41.4451 45.2727 41.0758 45.3892 40.786 45.6222C40.4963 45.8551 40.2818 46.1605 40.1426 46.5384C40.0034 46.9162 39.9338 47.3239 39.9338 47.7614C39.9338 48.1989 40.0034 48.6051 40.1426 48.9801C40.2818 49.3551 40.4963 49.6577 40.786 49.8878C41.0758 50.1179 41.4451 50.233 41.894 50.233Z" fill="#CFCFE7"></path><defs><clipPath id="clip0_2626_4716"><rect width="26" height="26" fill="white" transform="translate(20 4)"></rect></clipPath></defs></svg>