<svg xmlns="http://www.w3.org/2000/svg" width="66" height="54" viewBox="0 0 66 54" fill="none"><path fill-rule="evenodd" clip-rule="evenodd" d="M18.0016 22.7171H18.9587V18.9259L20.4532 22.2314C20.6225 22.6287 20.8657 22.7759 21.3366 22.7759C21.8076 22.7759 22.0362 22.6285 22.2111 22.2314L23.6983 18.9259V22.7171H24.6627V18.9259C24.6627 18.558 24.5154 18.3809 24.2062 18.2852C23.4774 18.0644 22.9914 18.2558 22.7707 18.7489L21.3058 22.0175L19.8922 18.7489C19.6787 18.2558 19.1854 18.0644 18.4493 18.2852C18.1473 18.3809 18.0002 18.5578 18.0002 18.9259L18 22.7171H18.0016ZM25.4593 19.6326H26.4238V21.7161C26.4165 21.8337 26.4606 22.0989 26.9848 22.106C27.257 22.1134 29.0608 22.106 29.0753 22.106V19.6178H30.0398V23.0263C30.0398 23.8655 29.0003 24.0493 28.5158 24.0569H25.4831V23.4167H28.5236C29.142 23.3504 29.0684 23.0413 29.0684 22.9382V22.6878H27.029C26.0793 22.6803 25.4681 22.2607 25.461 21.7822V19.6323L25.4593 19.6326ZM46.1461 17.2178C45.5574 17.203 45.1007 17.262 44.7179 17.4241C44.6077 17.4686 44.4308 17.4686 44.4163 17.6082C44.4752 17.6668 44.4823 17.7627 44.5339 17.8438C44.6222 17.9912 44.7769 18.1897 44.9167 18.2926C45.0715 18.4106 45.2261 18.5283 45.3878 18.6314C45.6749 18.8079 45.9988 18.9111 46.2785 19.0878C46.4405 19.1909 46.6023 19.3234 46.7644 19.4339C46.8469 19.4928 46.8969 19.5887 47 19.6253V19.6031C46.9485 19.5371 46.9337 19.4414 46.8824 19.3674C46.8086 19.294 46.735 19.2275 46.6613 19.1541C46.4479 18.867 46.1828 18.6165 45.8957 18.4106C45.66 18.2486 45.1449 18.0278 45.0492 17.7556L45.0347 17.7407C45.1964 17.7259 45.3878 17.6669 45.5425 17.6227C45.793 17.5567 46.0211 17.5712 46.2785 17.5051C46.3964 17.4754 46.5141 17.4388 46.632 17.402V17.336C46.4996 17.2035 46.4039 17.0267 46.2641 16.9017C45.8887 16.5778 45.4762 16.2611 45.0492 15.9962C44.821 15.849 44.5265 15.7531 44.2836 15.6282C44.195 15.584 44.048 15.5619 43.9965 15.4883C43.8637 15.3266 43.7902 15.1129 43.6945 14.9213C43.4812 14.5164 43.2749 14.0675 43.091 13.6404C42.9585 13.3533 42.8773 13.0662 42.7156 12.8012C41.9573 11.5497 41.1326 10.7915 39.8664 10.0479C39.5941 9.89328 39.2702 9.82678 38.9259 9.74593L38.3738 9.71623C38.2558 9.66475 38.1382 9.52483 38.035 9.4585C37.6154 9.19351 36.5332 8.61931 36.2238 9.37765C36.025 9.85615 36.5183 10.3272 36.6858 10.5703C36.8112 10.7396 36.9729 10.931 37.0615 11.1224C37.111 11.2474 37.1275 11.3801 37.1792 11.5126C37.2968 11.8365 37.4074 12.1973 37.562 12.4993C37.6445 12.6539 37.7311 12.8161 37.8342 12.9559C37.8931 13.0367 37.9962 13.0737 38.0182 13.2062C37.9151 13.3535 37.908 13.5741 37.8491 13.7584C37.5839 14.5903 37.687 15.6209 38.0624 16.2318C38.1804 16.4158 38.4584 16.8208 38.8356 16.6661C39.1669 16.5336 39.093 16.114 39.1887 15.7458C39.211 15.6576 39.1961 15.5987 39.2402 15.5396V15.5544L39.5421 16.1654C39.7703 16.5261 40.168 16.9017 40.4991 17.1521C40.6757 17.2846 40.8156 17.513 41.0364 17.5939V17.5716H41.0219C40.9776 17.5056 40.9113 17.4759 40.8524 17.4244C40.7199 17.2919 40.5727 17.1299 40.4696 16.9827C40.1606 16.5705 39.8883 16.114 39.6453 15.6429C39.5273 15.4147 39.4242 15.1644 39.3288 14.9362C39.2842 14.8478 39.2842 14.7151 39.2108 14.6712C39.1003 14.8329 38.9386 14.9732 38.8572 15.1718C38.7173 15.4883 38.7028 15.8785 38.6513 16.2834C38.6216 16.2908 38.6348 16.2834 38.6216 16.2983C38.3863 16.2395 38.3051 15.9963 38.2169 15.7904C37.9961 15.2677 37.9591 14.4285 38.1505 13.8247C38.202 13.6701 38.4231 13.1842 38.3348 13.037C38.2903 12.8971 38.1434 12.8163 38.0622 12.7057C37.9665 12.5658 37.8638 12.3892 37.7974 12.2346C37.6209 11.8221 37.5326 11.3659 37.341 10.9536C37.2524 10.7622 37.098 10.5633 36.9728 10.3868C36.8328 10.188 36.6786 10.0481 36.568 9.81259C36.5312 9.73174 36.4797 9.59908 36.5386 9.51064C36.5532 9.45174 36.5829 9.42979 36.6414 9.41494C36.7371 9.33409 37.0097 9.43705 37.1054 9.48094C37.3777 9.59149 37.6059 9.69445 37.8341 9.8489C37.9372 9.92249 38.0477 10.0624 38.1802 10.0994H38.335C38.5706 10.1508 38.8354 10.1142 39.056 10.1802C39.4463 10.3056 39.7995 10.4894 40.1163 10.6884C41.0806 11.2994 41.8759 12.1681 42.4131 13.2063C42.5014 13.3756 42.5382 13.5302 42.6194 13.7069C42.7742 14.0678 42.9656 14.4357 43.1198 14.7893C43.2746 15.1353 43.4218 15.4889 43.6426 15.776C43.7531 15.9306 44.1947 16.0115 44.3933 16.0925C44.5407 16.1585 44.7687 16.2179 44.9015 16.2988C45.1517 16.4534 45.402 16.6301 45.6374 16.7994C45.7551 16.8875 46.1234 17.0716 46.1453 17.2185L46.1461 17.2178ZM38.6386 10.8204C38.5369 10.8195 38.4355 10.8319 38.337 10.8572V10.8721H38.3515C38.4104 10.9899 38.5135 11.0709 38.5871 11.174L38.7566 11.5274L38.7711 11.5126C38.8742 11.439 38.9259 11.3212 38.9259 11.1446C38.8816 11.0932 38.8744 11.0415 38.8376 10.99C38.7934 10.9164 38.6977 10.8795 38.6386 10.8207V10.8204Z" fill="white"></path><path fill-rule="evenodd" clip-rule="evenodd" d="M30.7744 22.7171H33.5425C33.8664 22.7171 34.1757 22.6511 34.4259 22.5331C34.8455 22.3417 35.0443 22.0843 35.0443 21.7456V21.0389C35.0443 20.7666 34.8161 20.5087 34.3599 20.3322C34.1243 20.2439 33.8297 20.1923 33.5426 20.1923H32.3794C31.9891 20.1923 31.8052 20.0743 31.7535 19.8169C31.7463 19.7875 31.7463 19.758 31.7463 19.7286V19.2942C31.7463 19.2719 31.7463 19.2427 31.7535 19.2133C31.805 19.0145 31.9081 18.9628 32.2485 18.9262H35.0827V18.2855H32.3883C31.9981 18.2855 31.792 18.3078 31.6078 18.3667C31.0409 18.5433 30.7906 18.8231 30.7906 19.3161V19.876C30.7906 20.3099 31.2765 20.6784 32.101 20.7666C32.1893 20.7741 32.285 20.7741 32.3807 20.7741H33.3747C33.4115 20.7741 33.4481 20.7741 33.4775 20.7815C33.7794 20.8109 33.9119 20.8623 34.0002 20.9726C34.0591 21.0315 34.0739 21.0831 34.0739 21.1494V21.7088C34.0739 21.7748 34.0297 21.8636 33.9414 21.937C33.8532 22.0104 33.7129 22.0621 33.5289 22.0695C33.4921 22.0695 33.4704 22.0769 33.4332 22.0769H30.7744V22.7171ZM41.0366 21.6057C41.0366 22.2607 41.5316 22.6287 42.5167 22.7026C42.6124 22.71 42.7007 22.7171 42.7964 22.7171H45.2994V22.0769H42.7744C42.2146 22.0769 42.0012 21.937 42.0012 21.5984V18.2855H41.0348V21.6058L41.0366 21.6057ZM35.6551 21.6349V19.3529C35.6551 18.7713 36.0673 18.4177 36.87 18.3075C36.9583 18.3 37.0466 18.2926 37.1274 18.2926H38.953C39.0487 18.2926 39.1299 18.3 39.2256 18.3075C40.028 18.4177 40.4327 18.7711 40.4327 19.3529V21.6349C40.4327 22.1059 40.2636 22.3564 39.8658 22.5259L40.8079 23.3796H39.6965L38.9309 22.6877L38.1577 22.732H37.1271C36.9383 22.731 36.7503 22.7064 36.5676 22.6585C35.9571 22.4889 35.6551 22.1652 35.6551 21.6349V21.6349ZM36.693 21.5837C36.693 21.6131 36.7095 21.6423 36.7153 21.6794C36.7667 21.9442 37.0169 22.0916 37.3997 22.0916H38.2686L37.4736 21.37H38.585L39.2843 22.0033C39.4171 21.9296 39.498 21.8264 39.5274 21.6939C39.5348 21.6646 39.5348 21.6279 39.5348 21.5982V19.4117C39.5348 19.3823 39.5348 19.3531 39.5274 19.3234C39.4759 19.0732 39.2257 18.9335 38.8502 18.9335H37.3998C36.9728 18.9335 36.6931 19.1175 36.6931 19.4117L36.693 21.5837Z" fill="white"></path><path d="M13.6076 42.2727H14.869L17.8349 49.517H17.9371L20.9031 42.2727H22.1644V51H21.1758V44.3693H21.0906L18.3633 51H17.4087L14.6815 44.3693H14.5962V51H13.6076V42.2727ZM24.7947 53.4545C24.6243 53.4545 24.4723 53.4403 24.3388 53.4119C24.2053 53.3864 24.1129 53.3608 24.0618 53.3352L24.3175 52.4489C24.5618 52.5114 24.7777 52.5341 24.9652 52.517C25.1527 52.5 25.3189 52.4162 25.4638 52.2656C25.6115 52.1179 25.7464 51.8778 25.8686 51.5455L26.0561 51.0341L23.6357 44.4545H24.7266L26.5334 49.6705H26.6016L28.4084 44.4545H29.4993L26.7209 51.9545C26.5959 52.2926 26.4411 52.5724 26.2564 52.794C26.0717 53.0185 25.8572 53.1847 25.6129 53.2926C25.3714 53.4006 25.0987 53.4545 24.7947 53.4545ZM35.7358 44.4545C35.6847 44.0227 35.4773 43.6875 35.1136 43.4489C34.75 43.2102 34.304 43.0909 33.7756 43.0909C33.3892 43.0909 33.0511 43.1534 32.7614 43.2784C32.4744 43.4034 32.25 43.5753 32.0881 43.794C31.929 44.0128 31.8494 44.2614 31.8494 44.5398C31.8494 44.7727 31.9048 44.973 32.0156 45.1406C32.1293 45.3054 32.2741 45.4432 32.4503 45.554C32.6264 45.6619 32.8111 45.7514 33.0043 45.8224C33.1974 45.8906 33.375 45.946 33.5369 45.9886L34.4233 46.2273C34.6506 46.2869 34.9034 46.3693 35.1818 46.4744C35.4631 46.5795 35.7315 46.723 35.9872 46.9048C36.2457 47.0838 36.4588 47.3139 36.6264 47.5952C36.794 47.8764 36.8778 48.2216 36.8778 48.6307C36.8778 49.1023 36.7543 49.5284 36.5071 49.9091C36.2628 50.2898 35.9048 50.5923 35.4332 50.8168C34.9645 51.0412 34.3949 51.1534 33.7244 51.1534C33.0994 51.1534 32.5582 51.0526 32.1009 50.8509C31.6463 50.6491 31.2884 50.3679 31.027 50.0071C30.7685 49.6463 30.6222 49.2273 30.5881 48.75H31.679C31.7074 49.0795 31.8182 49.3523 32.0114 49.5682C32.2074 49.7812 32.4545 49.9403 32.7528 50.0455C33.054 50.1477 33.3778 50.1989 33.7244 50.1989C34.1278 50.1989 34.4901 50.1335 34.8111 50.0028C35.1321 49.8693 35.3864 49.6847 35.5739 49.4489C35.7614 49.2102 35.8551 48.9318 35.8551 48.6136C35.8551 48.3239 35.7741 48.0881 35.6122 47.9062C35.4503 47.7244 35.2372 47.5767 34.973 47.4631C34.7088 47.3494 34.4233 47.25 34.1165 47.1648L33.0426 46.858C32.3608 46.6619 31.821 46.3821 31.4233 46.0185C31.0256 45.6548 30.8267 45.179 30.8267 44.5909C30.8267 44.1023 30.9588 43.6761 31.223 43.3125C31.4901 42.946 31.848 42.6619 32.2969 42.4602C32.7486 42.2557 33.2528 42.1534 33.8097 42.1534C34.3722 42.1534 34.8722 42.2543 35.3097 42.456C35.7472 42.6548 36.0938 42.9276 36.3494 43.2741C36.608 43.6207 36.7443 44.0142 36.7585 44.4545H35.7358ZM41.7859 48.2727H42.945L43.9165 49.5511L44.1722 49.892L45.6211 51.8182H44.462L43.5075 50.5398L43.2688 50.2159L41.7859 48.2727ZM45.979 46.6364C45.979 47.5568 45.8129 48.3523 45.4805 49.0227C45.1481 49.6932 44.6921 50.2102 44.1126 50.5739C43.533 50.9375 42.8711 51.1193 42.1268 51.1193C41.3825 51.1193 40.7205 50.9375 40.141 50.5739C39.5614 50.2102 39.1055 49.6932 38.7731 49.0227C38.4407 48.3523 38.2745 47.5568 38.2745 46.6364C38.2745 45.7159 38.4407 44.9205 38.7731 44.25C39.1055 43.5795 39.5614 43.0625 40.141 42.6989C40.7205 42.3352 41.3825 42.1534 42.1268 42.1534C42.8711 42.1534 43.533 42.3352 44.1126 42.6989C44.6921 43.0625 45.1481 43.5795 45.4805 44.25C45.8129 44.9205 45.979 45.7159 45.979 46.6364ZM44.9563 46.6364C44.9563 45.8807 44.8299 45.2429 44.5771 44.723C44.3271 44.2031 43.9876 43.8097 43.5586 43.5426C43.1325 43.2756 42.6552 43.142 42.1268 43.142C41.5984 43.142 41.1197 43.2756 40.6907 43.5426C40.2646 43.8097 39.9251 44.2031 39.6722 44.723C39.4222 45.2429 39.2972 45.8807 39.2972 46.6364C39.2972 47.392 39.4222 48.0298 39.6722 48.5497C39.9251 49.0696 40.2646 49.4631 40.6907 49.7301C41.1197 49.9972 41.5984 50.1307 42.1268 50.1307C42.6552 50.1307 43.1325 49.9972 43.5586 49.7301C43.9876 49.4631 44.3271 49.0696 44.5771 48.5497C44.8299 48.0298 44.9563 47.392 44.9563 46.6364ZM47.756 51V42.2727H48.8129V50.0625H52.8697V51H47.756Z" fill="#CFCFE7"></path></svg>