<svg xmlns="http://www.w3.org/2000/svg" width="66" height="54" viewBox="0 0 66 54" fill="none"><path d="M33.4014 30.948C33.0162 30.948 32.6568 30.8453 32.323 30.6656L28.9081 28.6372C28.3946 28.3548 28.6514 28.2521 28.8054 28.2007C29.4987 27.9697 29.627 27.9183 30.346 27.5075C30.423 27.4561 30.5257 27.4818 30.6027 27.5332L33.2217 29.0994C33.3244 29.1507 33.4527 29.1507 33.5298 29.0994L43.7744 23.1683C43.8771 23.1169 43.9284 23.0142 43.9284 22.8859V11.0493C43.9284 10.921 43.8771 10.8183 43.7744 10.7669L33.5298 4.86149C33.4271 4.81014 33.2987 4.81014 33.2217 4.86149L22.977 10.7669C22.8743 10.8183 22.823 10.9466 22.823 11.0493V22.8859C22.823 22.9886 22.8743 23.1169 22.977 23.1683L25.7757 24.7859C27.2906 25.5561 28.2406 24.6575 28.2406 23.7588V12.0764C28.2406 11.9223 28.3689 11.7683 28.5487 11.7683H29.8581C30.0122 11.7683 30.1662 11.8966 30.1662 12.0764V23.7588C30.1662 25.7872 29.0622 26.9683 27.1365 26.9683C26.546 26.9683 26.0838 26.9683 24.7743 26.3264L22.0784 24.7859C21.4108 24.4007 21 23.6818 21 22.9115V11.075C21 10.3047 21.4108 9.58583 22.0784 9.20069L32.323 3.2696C32.9649 2.91013 33.8379 2.91013 34.4798 3.2696L44.7244 9.20069C45.392 9.58583 45.8028 10.3047 45.8028 11.075V22.9115C45.8028 23.6818 45.392 24.4007 44.7244 24.7859L34.4798 30.717C34.146 30.871 33.7608 30.948 33.4014 30.948ZM36.5595 22.8088C32.0662 22.8088 31.1419 20.7548 31.1419 19.0088C31.1419 18.8548 31.2703 18.7007 31.45 18.7007H32.7852C32.9392 18.7007 33.0676 18.8034 33.0676 18.9575C33.273 20.3183 33.8635 20.9859 36.5852 20.9859C38.7419 20.9859 39.6663 20.498 39.6663 19.3426C39.6663 18.675 39.4095 18.1872 36.046 17.8534C33.2473 17.571 31.5014 16.9548 31.5014 14.721C31.5014 12.6412 33.2473 11.4088 36.1744 11.4088C39.4609 11.4088 41.0784 12.5385 41.2838 15.0034C41.2838 15.0804 41.2582 15.1575 41.2068 15.2345C41.1555 15.2858 41.0784 15.3372 41.0014 15.3372H39.6663C39.5379 15.3372 39.4095 15.2345 39.3838 15.1061C39.0757 13.6939 38.2798 13.2318 36.1744 13.2318C33.8122 13.2318 33.5298 14.0534 33.5298 14.6696C33.5298 15.4142 33.8635 15.6453 37.0473 16.0561C40.2055 16.4669 41.6946 17.0575 41.6946 19.2656C41.669 21.525 39.8203 22.8088 36.5595 22.8088Z" fill="white"></path><path d="M21.1023 42.2727V51H20.0795L15.3239 44.1477H15.2386V51H14.1818V42.2727H15.2045L19.9773 49.142H20.0625V42.2727H21.1023ZM25.7397 51.1364C25.1488 51.1364 24.6303 50.9957 24.1843 50.7145C23.7411 50.4332 23.3945 50.0398 23.1445 49.5341C22.8974 49.0284 22.7738 48.4375 22.7738 47.7614C22.7738 47.0795 22.8974 46.4844 23.1445 45.9759C23.3945 45.4673 23.7411 45.0724 24.1843 44.7912C24.6303 44.5099 25.1488 44.3693 25.7397 44.3693C26.3306 44.3693 26.8477 44.5099 27.2908 44.7912C27.7369 45.0724 28.0835 45.4673 28.3306 45.9759C28.5806 46.4844 28.7056 47.0795 28.7056 47.7614C28.7056 48.4375 28.5806 49.0284 28.3306 49.5341C28.0835 50.0398 27.7369 50.4332 27.2908 50.7145C26.8477 50.9957 26.3306 51.1364 25.7397 51.1364ZM25.7397 50.233C26.1886 50.233 26.5579 50.1179 26.8477 49.8878C27.1374 49.6577 27.3519 49.3551 27.4911 48.9801C27.6303 48.6051 27.6999 48.1989 27.6999 47.7614C27.6999 47.3239 27.6303 46.9162 27.4911 46.5384C27.3519 46.1605 27.1374 45.8551 26.8477 45.6222C26.5579 45.3892 26.1886 45.2727 25.7397 45.2727C25.2908 45.2727 24.9215 45.3892 24.6317 45.6222C24.342 45.8551 24.1275 46.1605 23.9883 46.5384C23.8491 46.9162 23.7795 47.3239 23.7795 47.7614C23.7795 48.1989 23.8491 48.6051 23.9883 48.9801C24.1275 49.3551 24.342 49.6577 24.6317 49.8878C24.9215 50.1179 25.2908 50.233 25.7397 50.233ZM32.7124 51.1364C32.1669 51.1364 31.6854 50.9986 31.2678 50.723C30.8501 50.4446 30.5234 50.0526 30.2876 49.5469C30.0518 49.0384 29.9339 48.4375 29.9339 47.7443C29.9339 47.0568 30.0518 46.4602 30.2876 45.9545C30.5234 45.4489 30.8516 45.0582 31.272 44.7827C31.6925 44.5071 32.1783 44.3693 32.7294 44.3693C33.1555 44.3693 33.4922 44.4403 33.7393 44.5824C33.9893 44.7216 34.1797 44.8807 34.3104 45.0597C34.4439 45.2358 34.5476 45.3807 34.6214 45.4943H34.7067V42.2727H35.7124V51H34.7408V49.9943H34.6214C34.5476 50.1136 34.4425 50.2642 34.3061 50.446C34.1697 50.625 33.9751 50.7855 33.7223 50.9276C33.4695 51.0668 33.1328 51.1364 32.7124 51.1364ZM32.8487 50.233C33.2521 50.233 33.593 50.1278 33.8714 49.9176C34.1499 49.7045 34.3615 49.4105 34.5064 49.0355C34.6513 48.6577 34.7237 48.2216 34.7237 47.7273C34.7237 47.2386 34.6527 46.8111 34.5107 46.4446C34.3686 46.0753 34.1584 45.7884 33.88 45.5838C33.6016 45.3764 33.2578 45.2727 32.8487 45.2727C32.4226 45.2727 32.0675 45.3821 31.7834 45.6009C31.5021 45.8168 31.2905 46.1108 31.1484 46.483C31.0092 46.8523 30.9396 47.267 30.9396 47.7273C30.9396 48.1932 31.0107 48.6165 31.1527 48.9972C31.2976 49.375 31.5107 49.6761 31.7919 49.9006C32.076 50.1222 32.4283 50.233 32.8487 50.233ZM40.4382 51.1364C39.8075 51.1364 39.2635 50.9972 38.8061 50.7188C38.3516 50.4375 38.0007 50.0455 37.7536 49.5426C37.5092 49.0369 37.3871 48.4489 37.3871 47.7784C37.3871 47.108 37.5092 46.517 37.7536 46.0057C38.0007 45.4915 38.3445 45.0909 38.7848 44.804C39.228 44.5142 39.745 44.3693 40.3359 44.3693C40.6768 44.3693 41.0135 44.4261 41.3459 44.5398C41.6783 44.6534 41.9808 44.8381 42.2536 45.0938C42.5263 45.3466 42.7436 45.6818 42.9055 46.0994C43.0675 46.517 43.1484 47.0312 43.1484 47.642V48.0682H38.103V47.1989H42.1257C42.1257 46.8295 42.0518 46.5 41.9041 46.2102C41.7592 45.9205 41.5518 45.6918 41.282 45.5241C41.0149 45.3565 40.6996 45.2727 40.3359 45.2727C39.9354 45.2727 39.5888 45.3722 39.2962 45.571C39.0064 45.767 38.7834 46.0227 38.6271 46.3381C38.4709 46.6534 38.3928 46.9915 38.3928 47.3523V47.9318C38.3928 48.4261 38.478 48.8452 38.6484 49.1889C38.8217 49.5298 39.0618 49.7898 39.3686 49.9688C39.6754 50.1449 40.032 50.233 40.4382 50.233C40.7024 50.233 40.9411 50.196 41.1541 50.1222C41.37 50.0455 41.5561 49.9318 41.7124 49.7812C41.8686 49.6278 41.9893 49.4375 42.0746 49.2102L43.0462 49.483C42.9439 49.8125 42.772 50.1023 42.5305 50.3523C42.2891 50.5994 41.9908 50.7926 41.6357 50.9318C41.2805 51.0682 40.8814 51.1364 40.4382 51.1364ZM44.6783 44.4545H45.6839V51.4773C45.6839 51.8807 45.6143 52.2301 45.4751 52.5256C45.3388 52.821 45.1314 53.0497 44.853 53.2116C44.5774 53.3736 44.2294 53.4545 43.8089 53.4545C43.7749 53.4545 43.7408 53.4545 43.7067 53.4545C43.6726 53.4545 43.6385 53.4545 43.6044 53.4545V52.517C43.6385 52.517 43.6697 52.517 43.6982 52.517C43.7266 52.517 43.7578 52.517 43.7919 52.517C44.0987 52.517 44.3232 52.4261 44.4652 52.2443C44.6072 52.0653 44.6783 51.8097 44.6783 51.4773V44.4545ZM45.1726 43.3636C44.9766 43.3636 44.8075 43.2969 44.6655 43.1634C44.5263 43.0298 44.4567 42.8693 44.4567 42.6818C44.4567 42.4943 44.5263 42.3338 44.6655 42.2003C44.8075 42.0668 44.9766 42 45.1726 42C45.3686 42 45.5362 42.0668 45.6754 42.2003C45.8175 42.3338 45.8885 42.4943 45.8885 42.6818C45.8885 42.8693 45.8175 43.0298 45.6754 43.1634C45.5362 43.2969 45.3686 43.3636 45.1726 43.3636ZM52.1623 45.9205L51.2589 46.1761C51.2021 46.0256 51.1183 45.8793 51.0075 45.7372C50.8995 45.5923 50.7518 45.473 50.5643 45.3793C50.3768 45.2855 50.1367 45.2386 49.8441 45.2386C49.4435 45.2386 49.1097 45.331 48.8427 45.5156C48.5785 45.6974 48.4464 45.929 48.4464 46.2102C48.4464 46.4602 48.5373 46.6577 48.7191 46.8026C48.9009 46.9474 49.185 47.0682 49.5714 47.1648L50.543 47.4034C51.1282 47.5455 51.5643 47.7628 51.8512 48.0554C52.1381 48.3452 52.2816 48.7187 52.2816 49.1761C52.2816 49.5511 52.1737 49.8864 51.9577 50.1818C51.7447 50.4773 51.4464 50.7102 51.0629 50.8807C50.6793 51.0511 50.2333 51.1364 49.7248 51.1364C49.0572 51.1364 48.5046 50.9915 48.0671 50.7017C47.6296 50.4119 47.3526 49.9886 47.2362 49.4318L48.1907 49.1932C48.2816 49.5455 48.4535 49.8097 48.7063 49.9858C48.962 50.1619 49.2958 50.25 49.7077 50.25C50.1765 50.25 50.5487 50.1506 50.8242 49.9517C51.1026 49.75 51.2418 49.5085 51.2418 49.2273C51.2418 49 51.1623 48.8097 51.0032 48.6562C50.8441 48.5 50.5998 48.3835 50.2702 48.3068L49.1793 48.0511C48.5799 47.9091 48.1396 47.6889 47.8583 47.3906C47.5799 47.0895 47.4407 46.7131 47.4407 46.2614C47.4407 45.892 47.5444 45.5653 47.7518 45.2812C47.962 44.9972 48.2475 44.7741 48.6083 44.6122C48.9719 44.4503 49.3839 44.3693 49.8441 44.3693C50.4918 44.3693 51.0004 44.5114 51.3697 44.7955C51.7418 45.0795 52.006 45.4545 52.1623 45.9205Z" fill="#CFCFE7"></path></svg>