<svg xmlns="http://www.w3.org/2000/svg" width="66" height="54" viewBox="0 0 66 54" fill="none"><path d="M32.9114 28.9997L32.9114 28.9997C26.5196 28.9556 20.9572 23.6407 21.0002 16.9047C21.0416 10.4232 26.4368 4.95605 33.1061 5.00027C39.5895 5.04335 45.0573 10.4341 44.9995 17.0109L44.9995 17.0194L44.9995 17.0279C45.0531 23.5405 39.5586 29.0459 32.9114 28.9997Z" stroke="white" stroke-width="2"></path><path d="M37.1973 16.9955C37.1684 17.5328 36.699 17.979 36.2364 17.9011C36.2342 17.9011 36.2318 17.9011 36.2295 17.9011C35.7171 17.9018 35.3012 17.4869 35.3007 16.9745C35.3181 16.4607 35.7442 16.0558 36.2581 16.0645C36.7705 16.067 37.225 16.5 37.1973 16.9955ZM28.9579 22.202C29.1511 22.2077 29.3445 22.2036 29.5673 22.2036V23.6037C28.1825 23.8378 27.0418 23.4447 26.7619 22.2741C26.6661 21.8437 26.6071 21.4059 26.5856 20.9654C26.5558 20.499 26.6073 20.0275 26.5717 19.5619C26.4733 18.281 26.3073 17.8437 25.0781 17.7832V16.189C25.1662 16.1684 25.2556 16.1532 25.3455 16.1431C26.0194 16.1099 26.3034 15.9033 26.4542 15.2394C26.5228 14.8665 26.5634 14.4889 26.5755 14.1098C26.6289 13.3768 26.6099 12.632 26.732 11.9109C26.9085 10.8681 27.5559 10.3615 28.6252 10.3048C28.9294 10.2885 29.2347 10.3023 29.5794 10.3023V11.7335C29.4376 11.7435 29.3076 11.7642 29.1784 11.7603C28.307 11.7336 28.2619 12.0304 28.1983 12.7517C28.1586 13.2041 28.2133 13.6642 28.1825 14.1181C28.1503 14.5698 28.0898 15.0191 28.0016 15.4633C27.8759 16.1071 27.4801 16.5859 26.9316 16.9922C27.9963 17.6851 28.1175 18.7617 28.1866 19.855C28.2238 20.4425 28.2068 21.0341 28.2664 21.6187C28.3129 22.0725 28.4894 22.1882 28.9579 22.202ZM29.8553 16.0645C29.8609 16.0645 29.8663 16.0645 29.8718 16.0645C30.3809 16.073 30.7869 16.4924 30.7785 17.0016C30.7785 17.0184 30.7779 17.035 30.777 17.0516C30.7483 17.5492 30.3218 17.9292 29.8242 17.9006C29.8042 17.901 29.7843 17.9006 29.7642 17.8996C29.2575 17.8744 28.8671 17.4432 28.8922 16.9365C28.9174 16.4298 29.3486 16.0394 29.8553 16.0645ZM33.0278 16.0645C33.5846 16.0602 33.9544 16.4211 33.9573 16.9715C33.9603 17.5367 33.6097 17.8984 33.0565 17.9007C32.4939 17.9032 32.1236 17.5474 32.1205 17.0002C32.1189 16.9723 32.1185 16.9444 32.1193 16.9164C32.1349 16.4303 32.5416 16.0489 33.0278 16.0645ZM39.6699 15.3672C39.8181 15.9204 40.1064 16.1149 40.6888 16.1414C40.7842 16.1458 40.8792 16.162 41.01 16.1765V17.7703C40.9392 17.7935 40.8666 17.811 40.7929 17.8223C40.0125 17.8708 39.6568 18.191 39.578 18.9735C39.5276 19.473 39.5318 19.9781 39.4972 20.4794C39.4827 21.0298 39.4326 21.5787 39.3473 22.1227C39.1481 23.1082 38.5328 23.5998 37.5162 23.6598C37.189 23.6792 36.8594 23.6629 36.5066 23.6629V22.2384C36.6965 22.2267 36.8641 22.2105 37.0322 22.2065C37.6396 22.192 37.8544 21.9961 37.8841 21.3929C37.917 20.7301 37.9314 20.0666 37.961 19.4037C38.004 18.4456 38.2663 17.5897 39.1589 16.9921C38.6482 16.628 38.2381 16.1869 38.1319 15.5922C38.0034 14.8714 37.962 14.1347 37.8928 13.4038C37.8586 13.0384 37.8603 12.6699 37.8246 12.3048C37.7862 11.9106 37.5154 11.7742 37.1566 11.7654C36.9511 11.7604 36.7448 11.7644 36.482 11.7644V10.3734C38.1588 10.095 39.317 10.6529 39.4246 12.2572C39.4697 12.9308 39.463 13.6077 39.5062 14.2813C39.5251 14.6478 39.5799 15.0115 39.6699 15.3672Z" fill="white"></path><path d="M5.98775 44.4545C5.93661 44.0227 5.72923 43.6875 5.36559 43.4489C5.00195 43.2102 4.55593 43.0909 4.02752 43.0909C3.64116 43.0909 3.30309 43.1534 3.01332 43.2784C2.72639 43.4034 2.50195 43.5753 2.34002 43.794C2.18093 44.0128 2.10139 44.2614 2.10139 44.5398C2.10139 44.7727 2.15678 44.973 2.26758 45.1406C2.38121 45.3054 2.5261 45.4432 2.70224 45.554C2.87837 45.6619 3.06303 45.7514 3.25621 45.8224C3.4494 45.8906 3.62695 45.946 3.78888 45.9886L4.67525 46.2273C4.90252 46.2869 5.15536 46.3693 5.43377 46.4744C5.71502 46.5795 5.98349 46.723 6.23917 46.9048C6.49769 47.0838 6.71076 47.3139 6.87837 47.5952C7.04599 47.8764 7.12979 48.2216 7.12979 48.6307C7.12979 49.1023 7.00621 49.5284 6.75906 49.9091C6.51474 50.2898 6.15678 50.5923 5.68519 50.8168C5.21644 51.0412 4.64684 51.1534 3.97638 51.1534C3.35138 51.1534 2.81019 51.0526 2.35281 50.8509C1.89826 50.6491 1.54031 50.3679 1.27894 50.0071C1.02042 49.6463 0.874112 49.2273 0.840021 48.75H1.93093C1.95934 49.0795 2.07013 49.3523 2.26332 49.5682C2.45934 49.7812 2.7065 49.9403 3.00479 50.0455C3.30593 50.1477 3.62979 50.1989 3.97638 50.1989C4.37979 50.1989 4.74201 50.1335 5.06303 50.0028C5.38406 49.8693 5.63832 49.6847 5.82582 49.4489C6.01332 49.2102 6.10707 48.9318 6.10707 48.6136C6.10707 48.3239 6.0261 48.0881 5.86417 47.9062C5.70224 47.7244 5.48917 47.5767 5.22496 47.4631C4.96076 47.3494 4.67525 47.25 4.36843 47.1648L3.29457 46.858C2.61275 46.6619 2.07298 46.3821 1.67525 46.0185C1.27752 45.6548 1.07866 45.179 1.07866 44.5909C1.07866 44.1023 1.21076 43.6761 1.47496 43.3125C1.74201 42.946 2.09996 42.6619 2.54883 42.4602C3.00053 42.2557 3.50479 42.1534 4.06161 42.1534C4.62411 42.1534 5.12411 42.2543 5.56161 42.456C5.99911 42.6548 6.3457 42.9276 6.60138 43.2741C6.85991 43.6207 6.99627 44.0142 7.01048 44.4545H5.98775ZM10.214 51L8.21964 44.4545H9.27646L10.6912 49.4659H10.7594L12.1571 44.4545H13.231L14.6117 49.4489H14.6799L16.0946 44.4545H17.1515L15.1571 51H14.1685L12.7367 45.9716H12.6344L11.2026 51H10.214ZM20.4071 51.1534C19.9924 51.1534 19.6159 51.0753 19.2779 50.919C18.9398 50.7599 18.6713 50.5312 18.4725 50.233C18.2736 49.9318 18.1742 49.5682 18.1742 49.142C18.1742 48.767 18.248 48.4631 18.3958 48.2301C18.5435 47.9943 18.7409 47.8097 18.9881 47.6761C19.2353 47.5426 19.508 47.4432 19.8063 47.3778C20.1074 47.3097 20.41 47.2557 20.714 47.2159C21.1117 47.1648 21.4341 47.1264 21.6813 47.1009C21.9313 47.0724 22.1131 47.0256 22.2267 46.9602C22.3432 46.8949 22.4015 46.7812 22.4015 46.6193V46.5852C22.4015 46.1648 22.2864 45.8381 22.0563 45.6051C21.829 45.3722 21.4838 45.2557 21.0208 45.2557C20.5407 45.2557 20.1642 45.3608 19.8915 45.571C19.6188 45.7812 19.427 46.0057 19.3162 46.2443L18.3617 45.9034C18.5321 45.5057 18.7594 45.196 19.0435 44.9744C19.3304 44.75 19.6429 44.5937 19.981 44.5057C20.3219 44.4148 20.6571 44.3693 20.9867 44.3693C21.1969 44.3693 21.4384 44.3949 21.7111 44.446C21.9867 44.4943 22.2523 44.5952 22.508 44.7486C22.7665 44.902 22.981 45.1335 23.1515 45.4432C23.3219 45.7528 23.4071 46.1676 23.4071 46.6875V51H22.4015V50.1136H22.3503C22.2821 50.2557 22.1685 50.4077 22.0094 50.5696C21.8503 50.7315 21.6387 50.8693 21.3745 50.983C21.1103 51.0966 20.7878 51.1534 20.4071 51.1534ZM20.5605 50.25C20.9583 50.25 21.2935 50.1719 21.5662 50.0156C21.8418 49.8594 22.0492 49.6577 22.1884 49.4105C22.3304 49.1634 22.4015 48.9034 22.4015 48.6307V47.7102C22.3588 47.7614 22.2651 47.8082 22.1202 47.8509C21.9782 47.8906 21.8134 47.9261 21.6259 47.9574C21.4412 47.9858 21.2608 48.0114 21.0847 48.0341C20.9114 48.054 20.7708 48.071 20.6628 48.0852C20.4015 48.1193 20.1571 48.1747 19.9299 48.2514C19.7054 48.3253 19.5236 48.4375 19.3844 48.5881C19.248 48.7358 19.1799 48.9375 19.1799 49.1932C19.1799 49.5426 19.3091 49.8068 19.5676 49.9858C19.829 50.1619 20.16 50.25 20.5605 50.25ZM27.8848 53.5909C27.399 53.5909 26.9814 53.5284 26.6319 53.4034C26.2825 53.2812 25.9913 53.1193 25.7583 52.9176C25.5282 52.7188 25.345 52.5057 25.2086 52.2784L26.0098 51.7159C26.1007 51.8352 26.2157 51.9716 26.3549 52.125C26.4941 52.2812 26.6845 52.4162 26.926 52.5298C27.1703 52.6463 27.4899 52.7045 27.8848 52.7045C28.4132 52.7045 28.8493 52.5767 29.193 52.321C29.5368 52.0653 29.7086 51.6648 29.7086 51.1193V49.7898H29.6234C29.5495 49.9091 29.4444 50.0568 29.3081 50.233C29.1745 50.4062 28.9814 50.5611 28.7285 50.6974C28.4785 50.831 28.1404 50.8977 27.7143 50.8977C27.1859 50.8977 26.7115 50.7727 26.291 50.5227C25.8734 50.2727 25.5424 49.9091 25.2981 49.4318C25.0566 48.9545 24.9359 48.375 24.9359 47.6932C24.9359 47.0227 25.0538 46.4389 25.2896 45.9418C25.5254 45.4418 25.8535 45.0554 26.274 44.7827C26.6944 44.5071 27.1802 44.3693 27.7314 44.3693C28.1575 44.3693 28.4956 44.4403 28.7456 44.5824C28.9984 44.7216 29.1916 44.8807 29.3251 45.0597C29.4615 45.2358 29.5666 45.3807 29.6404 45.4943H29.7427V44.4545H30.7143V51.1875C30.7143 51.75 30.5865 52.2074 30.3308 52.5597C30.0779 52.9148 29.737 53.1747 29.3081 53.3395C28.8819 53.5071 28.4075 53.5909 27.8848 53.5909ZM27.8507 49.9943C28.2541 49.9943 28.595 49.902 28.8734 49.7173C29.1518 49.5327 29.3635 49.267 29.5083 48.9205C29.6532 48.5739 29.7257 48.1591 29.7257 47.6761C29.7257 47.2045 29.6547 46.7884 29.5126 46.4276C29.3706 46.0668 29.1603 45.7841 28.8819 45.5795C28.6035 45.375 28.2598 45.2727 27.8507 45.2727C27.4245 45.2727 27.0694 45.3807 26.7853 45.5966C26.5041 45.8125 26.2924 46.1023 26.1504 46.4659C26.0112 46.8295 25.9416 47.233 25.9416 47.6761C25.9416 48.1307 26.0126 48.5327 26.1547 48.8821C26.2995 49.2287 26.5126 49.5014 26.7939 49.7003C27.0779 49.8963 27.4302 49.9943 27.8507 49.9943ZM35.1973 53.5909C34.7115 53.5909 34.2939 53.5284 33.9444 53.4034C33.595 53.2812 33.3038 53.1193 33.0708 52.9176C32.8407 52.7188 32.6575 52.5057 32.5211 52.2784L33.3223 51.7159C33.4132 51.8352 33.5282 51.9716 33.6674 52.125C33.8066 52.2812 33.997 52.4162 34.2385 52.5298C34.4828 52.6463 34.8024 52.7045 35.1973 52.7045C35.7257 52.7045 36.1618 52.5767 36.5055 52.321C36.8493 52.0653 37.0211 51.6648 37.0211 51.1193V49.7898H36.9359C36.862 49.9091 36.7569 50.0568 36.6206 50.233C36.487 50.4062 36.2939 50.5611 36.041 50.6974C35.791 50.831 35.4529 50.8977 35.0268 50.8977C34.4984 50.8977 34.024 50.7727 33.6035 50.5227C33.1859 50.2727 32.8549 49.9091 32.6106 49.4318C32.3691 48.9545 32.2484 48.375 32.2484 47.6932C32.2484 47.0227 32.3663 46.4389 32.6021 45.9418C32.8379 45.4418 33.166 45.0554 33.5865 44.7827C34.0069 44.5071 34.4927 44.3693 35.0439 44.3693C35.47 44.3693 35.8081 44.4403 36.0581 44.5824C36.3109 44.7216 36.5041 44.8807 36.6376 45.0597C36.774 45.2358 36.8791 45.3807 36.9529 45.4943H37.0552V44.4545H38.0268V51.1875C38.0268 51.75 37.899 52.2074 37.6433 52.5597C37.3904 52.9148 37.0495 53.1747 36.6206 53.3395C36.1944 53.5071 35.72 53.5909 35.1973 53.5909ZM35.1632 49.9943C35.5666 49.9943 35.9075 49.902 36.1859 49.7173C36.4643 49.5327 36.676 49.267 36.8208 48.9205C36.9657 48.5739 37.0382 48.1591 37.0382 47.6761C37.0382 47.2045 36.9672 46.7884 36.8251 46.4276C36.6831 46.0668 36.4728 45.7841 36.1944 45.5795C35.916 45.375 35.5723 45.2727 35.1632 45.2727C34.737 45.2727 34.3819 45.3807 34.0978 45.5966C33.8166 45.8125 33.6049 46.1023 33.4629 46.4659C33.3237 46.8295 33.2541 47.233 33.2541 47.6761C33.2541 48.1307 33.3251 48.5327 33.4672 48.8821C33.612 49.2287 33.8251 49.5014 34.1064 49.7003C34.3904 49.8963 34.7427 49.9943 35.1632 49.9943ZM42.612 51.1364C41.9814 51.1364 41.4373 50.9972 40.9799 50.7188C40.5254 50.4375 40.1745 50.0455 39.9274 49.5426C39.6831 49.0369 39.5609 48.4489 39.5609 47.7784C39.5609 47.108 39.6831 46.517 39.9274 46.0057C40.1745 45.4915 40.5183 45.0909 40.9586 44.804C41.4018 44.5142 41.9189 44.3693 42.5098 44.3693C42.8507 44.3693 43.1873 44.4261 43.5197 44.5398C43.8521 44.6534 44.1547 44.8381 44.4274 45.0938C44.7001 45.3466 44.9174 45.6818 45.0794 46.0994C45.2413 46.517 45.3223 47.0312 45.3223 47.642V48.0682H40.2768V47.1989H44.2995C44.2995 46.8295 44.2257 46.5 44.0779 46.2102C43.9331 45.9205 43.7257 45.6918 43.4558 45.5241C43.1887 45.3565 42.8734 45.2727 42.5098 45.2727C42.1092 45.2727 41.7626 45.3722 41.47 45.571C41.1802 45.767 40.9572 46.0227 40.801 46.3381C40.6447 46.6534 40.5666 46.9915 40.5666 47.3523V47.9318C40.5666 48.4261 40.6518 48.8452 40.8223 49.1889C40.9956 49.5298 41.2356 49.7898 41.5424 49.9688C41.8493 50.1449 42.2058 50.233 42.612 50.233C42.8762 50.233 43.1149 50.196 43.3279 50.1222C43.5439 50.0455 43.7299 49.9318 43.8862 49.7812C44.0424 49.6278 44.1632 49.4375 44.2484 49.2102L45.22 49.483C45.1177 49.8125 44.9458 50.1023 44.7044 50.3523C44.4629 50.5994 44.1646 50.7926 43.8095 50.9318C43.4544 51.0682 43.0552 51.1364 42.612 51.1364ZM46.8521 51V44.4545H47.8237V45.4432H47.8919C48.0112 45.1193 48.2271 44.8565 48.5396 44.6548C48.8521 44.4531 49.2044 44.3523 49.5964 44.3523C49.6703 44.3523 49.7626 44.3537 49.8734 44.3565C49.9842 44.3594 50.068 44.3636 50.1248 44.3693V45.392C50.0907 45.3835 50.0126 45.3707 49.8904 45.3537C49.7711 45.3338 49.6447 45.3239 49.5112 45.3239C49.193 45.3239 48.9089 45.3906 48.6589 45.5241C48.4118 45.6548 48.2157 45.8366 48.0708 46.0696C47.9288 46.2997 47.8578 46.5625 47.8578 46.858V51H46.8521ZM60.5556 42.2727H61.6124V48.0511C61.6124 48.6477 61.4718 49.1804 61.1905 49.6491C60.9121 50.1151 60.5186 50.483 60.0101 50.7528C59.5016 51.0199 58.905 51.1534 58.2203 51.1534C57.5357 51.1534 56.9391 51.0199 56.4306 50.7528C55.9221 50.483 55.5272 50.1151 55.2459 49.6491C54.9675 49.1804 54.8283 48.6477 54.8283 48.0511V42.2727H55.8851V47.9659C55.8851 48.392 55.9789 48.7713 56.1664 49.1037C56.3539 49.4332 56.6209 49.6932 56.9675 49.8835C57.3169 50.071 57.7346 50.1648 58.2203 50.1648C58.7061 50.1648 59.1238 50.071 59.4732 49.8835C59.8226 49.6932 60.0897 49.4332 60.2743 49.1037C60.4618 48.7713 60.5556 48.392 60.5556 47.9659V42.2727ZM64.7797 42.2727V51H63.7228V42.2727H64.7797Z" fill="#CFCFE7"></path></svg>