<svg xmlns="http://www.w3.org/2000/svg" width="352" height="353" viewBox="0 0 352 353" fill="none"><path d="M350.5 176.442C350.554 213.904 338.554 250.386 316.279 280.477C315.671 281.326 315.035 282.147 314.374 282.969C313.712 283.791 313.606 283.977 313.236 284.427C311.939 286.098 310.589 287.742 309.239 289.359C307.89 290.976 306.593 292.54 305.111 294.078C304.184 295.112 303.258 296.146 302.279 297.154L299.341 300.149L296.351 303.092L294.842 304.471C276.066 321.95 253.681 335.076 229.274 342.917C204.867 350.758 179.036 353.122 153.615 349.841C128.193 346.561 103.804 337.716 82.1777 323.934C60.5512 310.152 42.2174 291.772 28.4771 270.096C14.7368 248.42 5.92668 223.981 2.67188 198.513C-0.582921 173.044 1.79735 147.169 9.64381 122.726C17.4903 98.2816 30.6106 75.867 48.074 57.0722C65.5373 38.2774 86.9157 23.5628 110.692 13.9727V13.9727C131.377 5.62908 153.474 1.36209 175.772 1.40573C177.995 1.40573 180.192 1.40573 182.415 1.5648C193.306 1.94404 204.135 3.36449 214.756 5.80681V5.80681C228.826 9.02981 242.444 13.9809 255.302 20.5478V20.5478C283.969 35.2213 308.031 57.5457 324.83 85.056C341.63 112.566 350.513 144.192 350.5 176.442V176.442Z" stroke="url(#paint0_linear_1734_11290)" stroke-width="1.82911" stroke-miterlimit="10"></path><path d="M40.1074 234.347L48.2325 226.394C48.7618 226.95 42.2247 232.279 42.4894 232.545L46.618 228.541" stroke="url(#paint1_linear_1734_11290)" stroke-width="0.51511" stroke-linecap="round" stroke-linejoin="round"></path><path d="M131.863 198.13C132.604 198.872 145.096 184.29 145.599 184.873C146.102 185.457 134.378 194.71 135.383 195.744C138.159 193.336 140.809 190.788 143.323 188.108C143.323 188.108 136.389 194.285 136.759 194.683C136.759 194.683 141.894 188.93 142.264 189.381" stroke="url(#paint2_linear_1734_11290)" stroke-width="0.51511" stroke-linecap="round" stroke-linejoin="round"></path><path d="M193.291 205.263C194.667 206.694 208.668 188.083 209.832 189.355C210.997 190.628 193.635 205.13 193.635 205.13C195.17 206.721 210.309 188.745 210.414 188.878C211.976 190.495 193.556 203.539 195.144 205.21C195.488 205.554 210.679 189.832 210.864 189.991C211.05 190.151 196.97 205.581 196.97 205.581L212.161 190.787C212.532 191.158 198.028 205.952 198.928 206.694C199.828 207.437 213.061 193.04 213.061 193.04C213.061 193.04 198.478 206.694 199.881 208.047C201.284 209.399 213.114 193.65 213.855 194.525L201.628 209.717C201.628 209.717 214.543 196.116 215.099 196.699C215.099 196.699 201.601 209.955 202.581 210.857C203.56 211.758 215.972 197.919 215.972 197.919L203.613 212.395C204.486 213.296 215.046 199.297 216.078 200.358L205.492 213.031C205.995 213.535 216.475 202.426 216.475 202.426C216.475 202.426 211.42 210.38 211.711 210.618C212.002 210.857 214.755 207.675 214.755 207.675" stroke="url(#paint3_linear_1734_11290)" stroke-width="0.51511" stroke-linecap="round" stroke-linejoin="round"></path><path d="M208.324 179.757C208.324 179.757 232.144 151.654 234.631 154.305L214.597 177.027C214.597 177.027 230.741 158.256 232.329 159.873C233.917 161.49 216.449 176.523 216.449 176.523C217.164 177.265 230.397 163.028 230.397 163.028C230.397 163.028 218.672 174.72 219.202 175.224L228.888 165.838C228.888 165.838 219.016 174.296 219.678 174.879C220.34 175.462 228.227 166.607 228.227 166.607L219.837 174.879C220.499 175.568 227.194 167.35 227.406 167.562L221.663 173.633L226.189 169.232" stroke="url(#paint4_linear_1734_11290)" stroke-width="0.51511" stroke-linecap="round" stroke-linejoin="round"></path><path d="M230.502 112.442L247.361 96.137C247.89 96.6937 232.831 112.654 232.831 112.654L246.593 99.398C247.334 100.193 233.625 112.919 233.625 112.919C234.684 114.006 245.588 99.0799 246.858 100.246L234.128 113.105C234.551 113.556 245.588 100.299 246.434 101.174C246.434 101.174 233.969 112.681 235.028 113.768C235.292 114.059 244.688 103.72 245.032 104.091L235.901 115.067C236.404 115.544 241.459 109.764 241.459 109.764C240.188 111.893 238.782 113.939 237.251 115.889C237.701 116.34 241.671 111.62 241.671 111.62C241.671 111.62 237.145 115.942 237.251 116.048C237.357 116.154 241.247 111.223 241.724 111.726C242.2 112.23 237.383 116.552 237.383 116.552C237.383 116.552 241.909 111.912 242.041 112.045C240.804 113.788 239.732 115.643 238.839 117.586C239.024 117.771 243.656 112.628 243.788 112.787C243.92 112.946 238.865 117.612 238.865 117.612C238.865 117.612 243.179 112.734 243.523 113.105C243.867 113.476 239.183 117.214 239.447 117.48L243.867 113.211C243.867 113.211 239.712 117.639 239.791 117.745C239.871 117.851 244.344 113.344 244.344 113.344C244.741 113.741 240.585 118.646 240.612 118.646C240.638 118.646 245.217 113.9 245.296 113.9C245.376 113.9 240.93 119.627 241.115 119.813C241.3 119.998 245.349 114.855 245.773 115.279C244.302 117.26 243.001 119.362 241.882 121.563C242.173 121.854 246.778 116.074 247.175 116.472C245.689 119.15 243.99 121.703 242.094 124.108C242.517 124.558 248.181 118.222 248.181 118.222C246.491 120.491 244.662 122.651 242.703 124.691C242.703 124.691 247.996 119.574 247.996 119.627L242.703 125.38C243.179 125.858 247.784 119.468 248.287 120.078L242.491 125.805C242.729 126.043 247.943 119.733 248.34 120.157L243.047 125.46C243.047 125.46 247.705 119.972 248.34 120.476C248.975 120.979 244.582 126.07 244.846 126.308C245.111 126.547 246.487 124.452 246.62 124.611L244.926 126.335C244.926 126.335 246.779 124.426 246.831 124.479" stroke="url(#paint5_linear_1734_11290)" stroke-width="0.51511" stroke-linecap="round" stroke-linejoin="round"></path><path d="M150.389 178.617L247.572 84.7355C257.152 94.5982 153.035 177.53 153.035 177.53C159.255 183.972 241.14 79.7246 247.413 86.2467C250.747 89.7198 150.944 173.738 154.226 177.052C154.226 177.052 245.137 83.781 247.81 86.5383C253.791 92.6892 157.349 177.529 157.614 177.795L248.154 90.3031L160.472 177.795C161.372 178.723 241.723 87.3867 247.624 93.5111L160.049 178.351C167.036 185.483 248.313 92.9809 248.313 92.9809C248.313 92.9809 156.82 173.977 161.24 178.537C165.024 182.487 241.405 88.3942 247.677 94.9163C252.971 100.563 155.285 171.803 163.251 179.916C163.251 179.916 221.873 113.846 226.558 118.698C227.775 119.971 165.448 181.798 165.448 181.798C165.448 181.798 219.703 117.266 225.711 123.47C226.002 123.762 165.712 181.957 165.712 181.957C168.359 184.608 222.138 120.236 225.684 123.921C225.843 124.08 166.083 181.851 166.083 181.851C166.083 181.851 223.885 122.41 225.658 124.239C225.658 124.239 165.051 181.718 165.924 182.567C167.327 184.078 221.847 120.527 225.843 124.69C229.839 128.852 164.416 180.605 167.618 183.999C168.756 185.165 224.811 125.856 226.214 127.315C228.41 129.595 168.147 185.907 168.412 186.199C170.079 187.922 224.97 125.22 228.146 128.402C231.321 131.583 166.665 185.483 168.915 187.79C168.915 187.79 225.287 124.849 229.469 129.197C229.336 129.197 163.622 182.832 168.915 188.267L229.786 129.515C234.736 134.659 167.486 187.339 169.153 189.089C169.153 189.089 226.108 124.504 230.845 129.409L170.079 192.005L232.989 131.026C234.1 132.166 169.312 192.801 170.026 193.543L233.809 131.848C239.685 137.973 170.291 193.411 170.291 193.411C176.511 199.906 234.286 131.636 234.286 131.636L170.609 194.418C173.255 197.069 231.03 128.137 234.947 132.193C234.947 132.193 168.28 192.191 170.926 194.948C170.926 194.948 231.957 129.754 235 132.935L171.032 195.85C171.032 195.85 229.416 127.156 235.53 133.466C235.926 133.863 171.561 196.088 171.561 196.088L235.979 133.731C238.335 136.196 167.168 191.051 172.144 196.115C177.437 201.682 236.429 133.916 236.429 133.916C236.429 133.916 169.259 194.126 172.17 197.149L236.853 134.579C236.853 134.579 166.824 191.21 173.335 197.918C173.335 197.918 231.348 129.542 237.462 135.878C243.575 142.215 175.399 198.183 175.399 198.183C181.248 204.254 237.594 138.026 237.594 138.026C237.594 138.026 172.938 194.073 177.781 199.005C177.781 199.005 234.868 137.31 238.097 140.677C244.157 146.934 178.654 200.145 178.654 200.145C181.936 203.565 236.879 142.268 237.594 143.143C243.522 149.267 180.163 200.755 180.163 200.755C181.618 202.266 235.741 143.355 237.541 145.237L181.274 201.391C185.112 205.368 234.894 145.423 236.853 147.544C241.828 152.687 179.66 199.721 182.307 202.425C184.953 205.129 230.766 144.68 236.165 150.275C236.456 150.593 183.55 203.141 183.55 203.141C183.55 203.141 232.433 151.388 234.63 153.668C234.63 153.668 179.898 200.198 184.847 205.341L206.02 184.767C206.47 185.245 184.53 205.659 184.847 205.978L206.523 185.006C207.237 185.748 186.382 208.576 186.382 208.576C186.382 208.576 207.767 187.021 208.19 187.366C208.19 187.366 184.556 208.867 186.859 211.227C187.256 211.625 191.199 207.038 191.199 207.038C191.623 207.489 186.832 212.712 186.832 212.712L190.829 209.345L187.441 214.647C187.441 214.647 190.617 210.988 190.908 211.28C191.199 211.572 187.203 217.404 187.653 217.855C187.653 217.855 191.146 213.931 191.411 214.223C191.675 214.515 189.055 220.056 189.214 220.215C190.423 218.889 191.713 217.64 193.078 216.476C193.29 216.689 189.955 221.593 190.061 221.779C190.167 221.965 193.925 217.696 194.11 217.882C194.296 218.067 190.088 221.54 190.299 221.673C190.511 221.806 194.137 217.961 194.137 217.961C194.137 217.961 190.088 221.752 190.352 222.15C190.617 222.548 194.746 217.908 194.746 217.908C193.494 219.421 192.151 220.856 190.723 222.203C191.12 222.627 194.375 217.935 194.746 218.306C195.116 218.677 191.834 223.317 192.258 223.767C192.681 224.218 195.91 219.605 196.228 219.923L193.581 224.642L197.207 221.116C197.551 221.461 194.401 225.305 194.56 225.385C196.092 224.107 197.525 222.716 198.848 221.222C199.033 221.408 194.507 225.57 194.64 225.703C194.772 225.835 199.007 221.461 199.007 221.461C199.007 221.461 195.381 227.373 195.672 227.585L200.171 223.237C200.595 223.688 195.645 228.54 195.645 228.54C196.069 228.99 200.277 223.423 200.595 223.767C199.442 226.099 198.161 228.365 196.757 230.555L202.474 225.252L198.424 232.782L204.432 226.975C203.36 229.156 202.103 231.241 200.674 233.206L204.988 229.043C204.988 229.043 201.468 233.338 201.838 233.736C202.209 234.134 205.491 229.68 205.755 229.945C206.02 230.21 201.653 233.922 202.024 234.319C202.394 234.717 205.729 230.714 205.729 230.714C205.729 230.714 202.288 233.948 202.368 234.028L205.411 231.085L203.982 234.717L205.544 233.179" stroke="url(#paint6_linear_1734_11290)" stroke-width="0.51511" stroke-linecap="round" stroke-linejoin="round"></path><path d="M244.211 73.6528L247.202 70.7629C246.262 71.8109 245.378 72.9083 244.555 74.0505L247.731 70.9485C247.731 70.9485 244.396 74.13 244.661 74.3421L248.049 71.0546C247.355 72.5478 246.797 74.1006 246.381 75.6943C246.672 75.9859 249.822 72.1416 249.928 72.2476L248.657 77.5502C248.657 77.5502 251.886 73.7854 252.204 74.13L249.901 78.3721C250.139 78.6107 253.315 75.0845 253.315 75.0845C253.315 75.0845 250.272 78.2395 250.669 78.5311L253.606 75.6147C253.924 75.9329 251.754 79.7507 251.754 79.7507C251.754 79.7507 254.109 77.2585 254.215 77.3646L253.606 80.8112L255.194 79.3" stroke="url(#paint7_linear_1734_11290)" stroke-width="0.51511" stroke-linecap="round" stroke-linejoin="round"></path><path d="M233.203 54.9097C233.203 55.0422 238.787 49.2095 238.946 49.3686C239.105 49.5276 238.126 52.9212 238.258 53.1864C238.712 52.6694 239.208 52.1906 239.74 51.7547" stroke="url(#paint8_linear_1734_11290)" stroke-width="0.51511" stroke-linecap="round" stroke-linejoin="round"></path><path d="M239.607 41.8125C239.978 42.1837 245.906 34.8927 246.303 35.3434C246.303 35.3434 241.01 42.5814 241.46 43.1116C243.404 41.4608 245.242 39.6899 246.965 37.8091L243.366 45.1796C244.663 43.7655 246.041 42.4287 247.494 41.1762C246.139 42.776 244.884 44.4583 243.736 46.2136L247.574 42.5018L244.689 47.8044L249.056 43.5623L245.298 49.1565C245.615 49.4481 249.638 44.5698 249.85 44.7554C250.061 44.941 246.912 51.1184 246.912 51.1184C247.362 51.5691 251.544 46.6643 251.544 46.6643L246.886 51.5957C247.309 52.0199 251.808 46.8499 251.808 46.8499C252.205 47.2476 247.759 52.1524 247.759 52.1524L253.052 47.115C253.555 47.6188 248.976 52.7092 249.479 53.2129C251.207 51.7428 252.842 50.1667 254.375 48.4937L249.453 53.9818C249.903 54.459 254.428 48.4407 254.746 48.8118C255.064 49.183 249.691 54.1144 250.035 54.4855L254.984 49.7133C255.408 50.1905 251.438 55.4135 251.438 55.4135C252.923 53.7546 254.534 52.2124 256.254 50.8003C256.731 51.2775 252.735 56.8982 252.787 56.9512L257.737 52.1524C256.39 53.9311 255.152 55.7904 254.031 57.7201C254.031 57.7201 258.583 53.319 258.583 53.319C259.113 53.8757 254.693 60.2918 254.693 60.2918C254.693 60.2918 259.272 54.9893 259.722 55.4135C258.728 57.5045 257.845 59.6461 257.075 61.8295C258.74 60.3736 260.33 58.8339 261.839 57.2163C261.594 58.9081 261.204 60.5757 260.674 62.2007C260.674 62.2007 262.606 60.0001 262.765 60.1857C262.924 60.3713 260.489 62.3863 260.701 62.5984L263.347 60.1592C263.347 60.1592 261.309 62.2537 261.336 62.2537C261.362 62.2537 263.294 60.3183 263.321 60.3448C262.697 61.1113 262.016 61.8292 261.283 62.4923L263.374 60.4774C263.374 60.4774 264.141 62.4393 264.168 62.4393" stroke="url(#paint9_linear_1734_11290)" stroke-width="0.51511" stroke-linecap="round" stroke-linejoin="round"></path><path d="M60.4062 142.004C68.9018 150.832 159.918 26.1437 169.71 36.298L62.1265 142.507C72.7129 153.537 169.869 34.5482 171.748 36.4571C171.748 36.4571 61.9942 143.303 63.4498 144.84C67.4726 149.029 175.215 36.7487 175.215 36.7487C183.102 44.9676 63.8468 145.053 63.8468 145.053C71.2837 152.768 166.667 27.7344 175.559 37.0138L65.3554 147.333C65.3554 147.333 178.418 35.9003 179.503 37.0138L66.6522 150.037C74.3803 157.991 182.414 35.7678 183.552 36.9343L68.002 151.628C72.8982 156.692 186.807 36.6692 186.807 36.6692C189.613 39.6651 69.14 154.146 69.14 154.146L190.883 36.298C195.435 41.0172 69.537 154.173 69.537 154.173L191.28 36.298L69.9604 154.491C74.5126 159.237 192.392 36.0594 192.392 36.0594C204.381 48.4673 70.2251 155.366 70.2251 155.366C71.2573 156.32 190.619 31.7113 194.139 35.3966C194.139 35.3966 68.0549 153.404 70.675 156.135C80.9173 166.74 186.966 25.9846 195.779 35.1315L70.8074 156.665L197.209 34.3626C203.031 40.3809 71.2043 157.54 72.5806 158.972C81.579 168.198 203.137 30.7304 204.143 31.7113C204.143 31.7113 69.1665 154.252 74.1156 159.502L208.351 29.5903C219.387 41.0172 72.7129 158.07 74.7508 160.191C87.1898 173.156 211.262 28.2382 211.262 28.2382C211.897 28.8745 75.3595 161.756 75.3595 161.756C75.3595 161.756 208.165 20.417 214.57 27.0451L77.1062 162.471C77.1062 162.471 214.067 20.1253 218.99 25.2157C220.102 26.4088 77.3444 163.638 77.3444 163.638C80.3086 166.74 219.016 21.2654 221.69 24.0227L77.6091 163.558C77.6091 163.558 208.298 10.7929 221.425 24.3939C225.342 28.4503 67.0227 152.291 78.3501 164.036L223.383 23.7576C236.855 37.7297 79.9646 164.274 80.2557 164.672C81.0232 165.467 226.586 23.1213 226.586 23.1213C231.403 28.1321 78.6413 162.763 81.579 165.891L229.312 23.0152C229.312 23.0152 81.1026 164.751 82.5318 166.183C82.5318 166.183 218.011 10.9785 230.079 23.4924C230.079 23.4924 83.0081 165.282 83.3787 165.653L229.92 23.9431L84.3579 166.607C98.9142 181.719 231.482 24.2613 231.482 24.2613L85.6547 167.27C85.6547 167.27 229.788 20.8942 233.229 24.5264C235.875 27.3898 85.9988 167.058 85.9988 167.058C85.9988 167.058 228.624 19.7807 233.255 24.606L89.2276 168.039L236.352 25.746C243.259 32.9309 91.5037 168.914 91.5037 168.914L238.575 26.5944C245.191 33.4612 83.9345 160.112 92.7476 169.259C92.7476 169.259 233.202 21.3184 239.21 27.5754C245.218 33.8323 90.7097 164.486 95.5265 169.577C106.642 181.11 234.102 20.7881 241.46 28.3973C250.432 37.7032 90.1804 164.566 95.2883 169.868L241.168 28.6359C241.168 28.6359 88.9894 162.71 96.1617 170.16C98.0672 172.228 242.042 29.0601 242.042 29.0601C255.407 42.9261 96.6116 170.054 96.6116 170.054L242.174 29.3782L97.2203 170.213C97.2203 170.213 242.254 28.9275 242.783 29.4312C242.783 29.4312 93.8592 165.441 99.8669 171.671C99.8669 171.671 241.857 28.5033 244.741 31.4992C244.741 31.4992 99.6552 170.929 100.714 172.016C111.882 183.575 239.845 27.0451 245.006 32.4007C245.006 32.4007 98.8083 168.331 103.149 172.917C112.968 183.098 246.065 34.6542 246.065 34.6542C246.065 34.6542 95.3942 162.577 106.007 173.58L237.437 46.3198C237.437 46.3198 101.137 169.577 105.875 174.508L237.728 46.9561C237.728 46.9561 101.958 169.206 108.045 175.542C109.58 177.159 226.639 36.6427 238.707 49.1566C242.042 52.6032 100.476 167.509 109.024 176.258L230.847 58.3565C230.847 58.3565 106.589 174.879 109.448 177.743C109.448 177.743 217.958 48.6794 229.947 61.0873L110.691 180.314C110.691 180.314 223.807 59.3109 229.576 65.3028C239.686 75.7752 105.187 179.519 110.215 184.742L230.582 68.2987C235.081 72.8854 101.349 175.94 110.956 185.908C111.353 186.333 228.147 62.6515 233.07 67.7949C237.993 72.9384 111.088 188.136 111.088 188.136C111.088 188.136 236.299 66.3633 236.616 66.7079C239.448 69.6243 105.981 184.053 111.062 189.302C111.062 189.302 231.297 58.5686 238.495 66.0186L111.3 189.435L238.892 66.0186C238.892 66.0186 102.752 182.833 111.697 192.112C121.516 202.267 240.957 67.0526 240.957 67.0526L111.856 192.112C124.374 205.104 241.089 67.0791 241.089 67.0791C252.708 79.1423 108.045 189.991 112.65 194.817L243.789 67.954C243.789 67.954 111.459 194.711 112.941 196.275C112.941 196.275 239.501 63.712 244.609 69.0145C244.609 69.0145 104.075 189.382 113.391 198.926C125.301 211.281 234.473 57.349 246.647 69.9955C246.647 69.9955 109.845 195.32 114.317 199.907C114.317 199.907 242.862 74.2905 243.497 74.9533C251.278 83.0397 102.143 188.374 115.058 201.763L244.318 76.7827C245.959 78.506 115.323 204.043 115.985 204.706C129.032 218.254 239.713 73.0444 245.668 79.2484L116.646 208.046L246.964 82.0852C249.161 84.3918 108.786 201.392 117.731 210.565L147.744 181.534C147.744 181.534 115.455 210.035 118.367 213.031L130.144 201.657C130.144 201.657 118.314 214.277 119.558 215.417C120.06 215.974 129.773 203.751 130.673 204.679C130.673 204.679 119.055 215.815 119.637 216.398C119.637 216.398 130.7 205.793 130.726 205.793C131.256 206.35 120.722 218.333 120.801 218.386L130.964 208.55C131.785 209.399 120.828 219.5 120.828 219.5C120.828 219.5 130.117 208.471 131.123 209.531L121.86 221.038L130.276 212.527L124.083 219.951C125.737 218.519 127.309 216.997 128.794 215.39" stroke="url(#paint10_linear_1734_11290)" stroke-width="0.51511" stroke-linecap="round" stroke-linejoin="round"></path><path d="M37.248 140.916L132.658 48.626C137.157 53.2657 38.3331 141.208 38.3331 141.208C38.3331 141.208 124.665 38.2066 134.404 48.4139C134.404 48.4139 33.8339 138.132 39.1271 143.859C45.823 150.806 140.544 45.7627 140.544 45.7627C143.032 48.4139 39.0213 146.908 39.4712 147.412L147.187 43.1379L39.7888 147.916C39.7888 147.916 143.853 37.915 148.511 42.7402C158.753 53.3453 39.63 149.904 39.63 149.904C46.6699 157.195 151.66 41.5472 151.66 41.5472C153.989 43.9598 36.8775 148.393 40.0799 151.707C40.0799 151.707 148.722 32.5329 155.736 39.8239C162.749 47.1148 32.6959 146.935 39.974 154.517C50.5604 165.52 159.944 38.4717 159.944 38.4717C159.944 38.4717 39.6035 156.665 40.5563 157.646C42.8324 160.005 158.303 27.7341 166.243 36.0856C166.243 36.0856 38.2273 157.513 40.7945 160.191C45.3995 164.937 168.916 35.9795 169.075 36.0856C172.277 39.3731 32.2989 152.29 40.9533 161.278L59.4794 143.302C60.3263 144.177 40.9533 162.842 40.9533 162.842L58.9236 145.45C59.797 146.351 40.2122 165.838 40.6092 166.262C40.6092 166.262 58.5531 148.764 58.6325 148.844C58.7119 148.923 40.4769 167.19 40.7151 167.402C40.9533 167.614 57.6797 149.453 58.4472 150.249C58.4472 150.249 40.1064 168.569 40.8474 169.338C41.0062 169.497 58.2884 152.449 58.2884 152.449C59.5853 153.775 40.6886 171.353 41.5091 172.228C41.5091 172.228 57.3886 153.404 59.1354 155.207C59.7441 155.843 41.1121 172.864 41.1121 172.864L58.8178 155.763L41.6149 173.474C43.2293 175.144 58.659 156.956 58.659 156.983L41.6414 175.833C43.1499 177.424 58.8707 157.646 59.6382 158.415C60.4057 159.183 41.6149 175.992 41.6149 175.992L59.4794 158.706C59.4794 158.706 40.9533 178.246 41.1915 178.644C41.1915 178.644 58.1032 159.21 59.7176 160.801L41.6149 179.174C41.906 179.466 60.1411 161.358 60.1411 161.358C60.1411 161.358 41.4561 181.348 41.9854 181.878C41.9854 181.878 60.5116 162.763 61.0409 163.319C61.5702 163.876 41.8796 184.185 41.8796 184.185C43.7851 186.173 61.5438 164.3 61.9937 164.751C63.4493 166.262 40.8209 184.158 42.4089 185.961C42.7794 186.332 63.0788 164.115 64.0051 165.069C64.0051 165.069 40.371 187.34 42.2236 189.275C42.2236 189.275 66.043 164.513 66.9693 165.414C68.2396 166.74 42.2766 189.461 42.6206 189.806C42.9647 190.15 67.6044 165.334 67.7632 165.493L43.3617 191.714C43.3617 191.714 67.8162 162.816 70.4363 165.52C71.6273 166.766 43.3352 193.04 43.3352 193.04C43.3352 193.04 71.3361 165.175 71.6273 165.467C73.9563 167.88 40.8739 190.018 43.5734 192.828C44.3144 193.57 71.9978 165.334 71.9978 165.334L47.3051 192.748L73.771 167.243L46.9875 193.199L73.4534 167.588L50.1369 192.748C52.0954 194.763 72.183 166.819 74.4856 169.205C74.9355 169.709 51.6984 191.582 52.069 191.953L75.306 169.576C75.306 169.576 52.4659 189.514 54.345 191.343L75.5177 170.876C76.4441 171.83 60.6704 189.063 60.6704 189.063C61.332 189.752 76.0735 174.163 76.0735 174.163L64.6932 187.022C64.9579 187.287 76.3382 175.754 76.3382 175.754L71.2038 183.018L74.3797 179.969" stroke="url(#paint11_linear_1734_11290)" stroke-width="0.51511" stroke-linecap="round" stroke-linejoin="round"></path><path d="M48.6554 56.5271L56.5951 48.8649L45.056 60.4509C45.2677 60.6365 57.442 48.4672 57.442 48.4672C57.442 48.4672 31.823 71.4802 34.2844 73.9193C36.7457 76.3585 59.9828 45.5243 61.756 47.4067C61.756 47.4067 25.4712 79.8051 28.356 82.801C28.356 82.801 64.879 43.9336 66.6257 45.6834C70.4103 49.6073 24.9684 87.5733 25.2595 87.8649C25.5506 88.1566 66.9168 40.6725 70.2515 44.2517C74.4332 48.4672 20.2839 96.5345 20.2839 96.5345C23.5657 99.9547 75.8623 42.767 75.8623 42.767C80.4145 47.6188 15.4142 95.6066 18.9871 99.3714L78.2178 42.0777C84.4108 48.5203 17.108 103.057 17.108 103.057L81.0232 41.0967C81.0232 41.0967 14.1438 106.238 15.4142 107.484C17.8226 110.056 85.5753 39.6651 85.5753 39.6651C85.5753 39.6651 9.37996 102.951 14.8849 108.598C17.3727 111.249 84.4373 37.332 86.3428 39.3734C86.3428 39.3734 11.8413 109.685 13.4292 111.355C15.8906 114.006 88.566 38.6841 88.566 38.6841C95.9499 46.3462 12.9793 113.582 12.9793 113.582C12.9793 113.582 85.1783 32.5067 90.7891 38.3129C90.7891 38.3129 7.84493 111.647 12.0265 115.995C12.0265 115.995 86.1311 31.6848 92.4829 38.1538C92.4829 38.1538 8.8771 119.203 10.121 120.502C10.121 120.502 89.1217 30.094 96.1087 37.332C97.4585 38.7901 5.70119 119.68 9.24763 123.339L98.8083 36.6956C103.89 41.9982 2.02243 118.328 8.82417 125.407C15.1231 131.929 100.634 35.4761 101.19 36.0593C107.198 42.3163 3.02814 124.744 7.47441 129.331C7.47441 129.331 101.19 32.8513 104.101 35.8738C107.013 38.8962 6.57457 133.97 6.57457 133.97C14.4614 142.216 106.854 37.0138 106.854 37.0138L5.25127 138.637C5.25127 138.637 101.084 32.3211 107.86 39.3469C107.86 39.3469 -3.9324 129.808 4.96015 139.034C9.43289 143.674 101.984 32.9839 108.018 39.3469L4.51023 142.746C4.51023 142.746 101.931 38.1804 107.092 43.5094L3.42513 147.121C6.07172 149.772 104.948 49.024 104.948 49.024C104.948 49.024 -0.0154424 147.041 3.34573 150.514C3.34573 150.514 95.6323 41.1232 105.663 51.5427C115.694 61.9621 0.408012 152.317 2.71055 154.703C6.94509 159.104 109.606 51.3041 109.606 51.3041L2.73701 154.703C11.4178 163.744 109.792 51.1715 109.792 51.1715C112.994 54.5121 1.70484 153.987 2.71055 155.048C2.84288 155.048 99.6816 40.4074 110.083 51.198C110.083 51.198 -2.31798 156.055 1.57251 160.085C1.81071 160.35 116.249 49.1566 116.249 49.1566C116.249 49.1566 -3.95886 155.419 1.57251 161.146L117.493 48.9975C128.926 60.8751 1.70484 163.558 1.70484 163.558C11.4178 173.607 116.435 42.8201 121.278 47.8574C121.278 47.8574 0.381546 164.274 1.36078 165.388C8.50658 172.811 123.607 47.1416 123.607 47.1416C125.698 49.3156 -3.03256 161.755 1.57251 166.448C11.656 176.894 119.531 40.9907 125.168 46.85C136.205 58.4094 1.46665 168.172 1.46665 168.172C11.4178 178.485 126.836 46.8765 126.836 46.8765C126.836 46.8765 -2.21211 165.547 1.41372 169.312C1.41372 169.312 125.803 44.9145 127.841 46.9825C135.728 55.1749 1.51958 170.08 1.51958 170.08C9.16823 178.034 128.821 46.9295 128.821 46.9295C137.634 56.0763 0.93733 173.182 1.06966 173.315C2.0489 174.322 130.753 47.884 130.753 47.884C130.753 47.884 -9.96662 164.539 1.12259 176.046L35.9782 142.348C35.9782 142.348 -1.3652 176.868 1.36078 179.678C1.36078 179.678 34.4696 146.272 35.1578 146.988C35.3165 147.147 -0.650624 177.849 1.30785 179.89C1.30785 179.89 33.0669 145 35.0784 147.2L1.33432 181.799L34.946 149.295C35.6341 150.01 0.540341 183.761 1.04319 184.424C1.20199 184.609 33.3316 149.639 35.1048 151.469C38.0955 154.571 1.83717 187.287 1.83717 187.287C1.83717 187.287 33.9668 154.942 34.602 155.472C36.2429 157.301 1.54605 190.363 1.54605 190.363C1.54605 190.363 33.9403 157.487 34.7608 158.229C35.5812 158.972 -1.31227 190.522 1.62544 193.438C1.62544 193.438 31.479 158.733 34.3902 161.623L1.81071 194.048C3.79565 196.089 34.549 162.233 34.549 162.233L1.94303 195.241C4.13971 197.521 34.2314 162.949 34.7608 163.426C35.2901 163.903 2.34002 196.513 2.34002 196.513C5.41007 199.695 34.4961 165.414 34.4961 165.414C35.4224 166.369 0.090421 197.229 2.52528 199.668C4.96015 202.108 34.2844 168.887 34.2844 168.887C36.7457 171.406 -0.121306 197.335 2.52528 200.146C2.68408 200.305 33.2257 167.35 34.7608 168.94C37.5926 171.83 0.93733 199.191 2.63115 200.941C2.63115 200.941 33.808 169.126 34.7078 169.921C36.4281 171.724 2.94874 203.036 2.94874 203.036C2.94874 203.036 33.1993 171.22 34.4432 172.573C34.4432 172.573 0.752069 202.77 3.47806 205.581C3.47806 205.581 32.0877 171.936 35.0784 175.012C36.1899 176.178 1.09613 203.566 4.11324 206.827C4.11324 206.827 32.7758 175.012 34.8931 177.08C35.4753 177.53 4.08677 210.406 4.08677 210.406L35.1578 180.341L4.48376 210.83C4.48376 210.83 31.876 178.114 34.9725 181.322C34.9725 181.322 4.2985 212.315 5.22481 213.137C6.73336 214.701 33.1463 181.004 35.6871 183.655C35.6871 183.655 5.80706 216.345 5.91292 216.477C8.26839 218.917 35.8723 187.499 35.8723 187.499C38.5189 190.15 6.75983 219.314 6.75983 219.314L36.5869 190.416C36.5869 190.416 4.06031 217.803 6.86569 220.719C8.9565 222.867 36.5869 191.397 36.878 191.715C39.2335 194.233 6.94509 221.435 6.99802 221.462C7.05095 221.488 36.1105 191.344 37.1162 192.298C39.5511 194.949 6.68043 221.806 6.68043 221.806C7.55381 222.734 35.1577 190.76 36.9045 192.643C36.9045 192.59 4.51023 219.951 7.15682 222.602C8.05666 223.53 37.5397 193.199 37.5397 193.199L7.02449 222.734C7.02449 222.734 36.7192 191.927 37.7514 193.014L7.47441 222.84C8.90357 224.325 36.1899 191.794 37.8308 193.491C39.4717 195.188 5.41007 221.25 7.47441 223.212L37.9896 193.438C40.9273 196.593 5.88645 221.303 7.68614 223.159C9.48582 225.014 36.7986 192.457 38.0425 193.809C38.0425 193.809 7.76553 224.749 8.50658 225.624C9.77694 226.844 38.9424 196.089 38.9424 196.089C42.0654 199.297 8.48011 227.904 8.48011 227.904L40.2392 197.176C40.5568 197.521 9.75048 229.495 9.75048 229.495C9.75048 229.495 42.5947 197.521 42.7005 197.68L9.77694 231.324L43.3093 198.873C44.7119 200.331 7.8714 229.654 10.4651 232.358C13.0587 235.063 42.5153 196.328 45.0295 198.926L10.3857 233.976C10.3857 233.976 43.468 197.229 45.8235 199.695C45.8235 199.695 8.16252 231.324 11.4178 234.586C11.4178 234.586 44.7119 197.123 47.3321 199.828C47.3321 199.828 10.6503 234.294 11.3649 234.904C11.3649 234.904 46.6175 199.297 47.385 200.066C47.385 200.066 11.6296 237.025 12.3971 237.82C12.3971 237.82 47.4115 198.581 50.0845 201.365C52.7576 204.149 12.3706 239.278 12.3706 239.278C12.3706 239.278 47.4644 198.131 51.0638 201.842C53.3928 204.282 9.53875 236.76 12.4765 239.782C12.4765 239.782 50.6668 200.225 51.9636 201.577C55.6159 205.342 13.3234 239.888 13.3234 239.888C13.3234 239.888 51.9107 200.649 52.8634 201.63C54.2926 203.115 13.1646 241.399 13.1646 241.399C16.4993 244.872 53.181 200.676 54.1867 201.63C56.3305 203.831 13.9586 241.24 13.9586 241.24C14.6731 241.983 53.3398 200.066 54.8749 201.657C54.8749 201.657 11.709 240.339 13.7998 242.513L56.4893 201.392C56.4893 201.392 10.7033 239.437 13.985 242.831C13.985 242.831 55.2983 201.365 56.0658 202.134C56.8333 202.903 14.2232 243.812 14.2232 243.812C18.0608 247.948 53.8956 201.392 55.907 203.513C58.3948 206.164 11.2855 241.267 14.4879 244.581L56.2775 204.043C56.2775 204.043 10.915 240.842 14.8319 244.925C16.0758 246.225 56.3305 204.759 56.3305 204.759C59.5593 208.099 13.985 243.282 15.5465 245.005C16.367 245.853 53.6574 203.168 56.1452 205.766C56.1452 205.766 12.0001 241.346 15.573 245.058L55.6688 206.27C55.6688 206.27 15.176 245.297 15.97 246.039C18.6166 248.69 51.8048 203.301 55.8276 207.49C55.8276 207.49 15.0437 245.774 16.5522 247.259C18.8548 249.645 54.7955 210.141 54.7955 210.141C58.633 214.383 14.0909 246.463 16.5522 249.114C19.4105 251.925 54.7425 211.997 54.7425 211.997L17.0286 249.83C17.0286 249.83 52.4665 212.209 54.0809 213.959L17.849 250.387L53.0487 216.318C55.4306 218.811 16.5522 249.565 17.6638 250.785C20.8662 254.125 50.6403 213.216 53.4722 216.159C53.4722 216.159 15.9964 250.626 18.5636 253.277C21.1308 255.928 50.9844 221.859 50.9844 221.859C54.0279 225.014 17.1609 251.554 18.7754 253.197C18.7754 253.197 49.2905 220.401 50.9314 222.098L20.0986 255.69C20.0986 255.69 34.5755 239.782 35.5812 240.736C36.0311 241.161 20.7074 257.996 21.3161 258.659C21.3161 258.659 34.0991 244.369 35.0519 245.403L22.1895 258.951C22.1895 258.951 35.2636 245.88 35.4224 246.092C36.2958 246.993 20.3633 258.288 21.7395 259.693C22.1365 260.091 34.3373 246.437 34.8402 247.02C35.343 247.603 22.163 259.719 22.163 259.719C22.904 260.488 35.1313 247.179 35.1313 247.179C35.5283 247.577 21.8983 260.276 22.7188 261.151C22.957 261.39 35.3695 248.902 35.3695 248.902C35.8194 249.38 23.4334 263.193 24.0156 263.802L35.8988 252.296L24.2803 263.961C24.5979 264.306 35.74 251.421 36.481 252.163C36.481 252.163 23.6715 263.219 24.7302 264.333C24.7302 264.333 35.6871 251.766 36.6663 252.8C36.6663 252.8 24.2273 263.166 25.0742 264.041C25.9211 264.916 36.5869 253.038 36.5869 253.038L25.4448 266.295C26.027 266.904 36.8516 255.265 36.8516 255.265C36.8516 255.265 25.9211 265.526 26.2652 265.87C26.6093 266.215 37.275 254.841 37.4603 255.053L26.424 266.639C26.821 267.063 37.4074 256.034 37.4074 256.034L27.9326 268.681C27.9326 268.681 38.2543 257.89 38.6512 258.314C39.0482 258.738 28.7001 270.59 29.2294 271.146C29.3882 271.305 38.9953 261.628 39.0482 261.681L30.2351 273.639C30.2351 273.639 40.2127 263.378 40.5039 263.696C41.2449 264.465 31.3467 273.983 31.3467 273.983C31.7701 274.407 40.1863 264.147 40.8479 264.81L31.9818 275.229C32.7229 276.025 41.0861 266.082 41.2449 266.268C41.4037 266.454 32.1936 276.873 32.5376 277.112L42.0918 267.673C42.9652 268.601 32.7758 276.741 32.9346 276.9L42.3035 267.673L33.3051 277.483L42.3829 268.707C42.3829 268.707 34.1785 278.835 34.6284 279.312C34.6284 279.312 42.5682 270.165 43.2828 270.961C43.2828 270.961 34.8137 280.532 35.343 281.142C35.8723 281.751 44.5796 272.207 44.5796 272.207L35.7665 281.645C36.1105 281.963 44.4208 272.976 44.5531 273.135C45.2942 273.904 36.2429 281.539 36.4281 281.751C37.0898 282.414 45.3207 273.161 45.3207 273.161L37.1692 283.183C37.328 283.342 46.0617 274.593 46.0617 274.593L37.8573 283.793C40.6575 281.375 43.309 278.79 45.797 276.051L37.6985 284.323L46.591 275.707C46.9615 276.104 38.5189 284.138 38.8894 284.535C39.7099 285.384 47.0409 276.581 47.0409 276.581C47.0409 276.581 38.4925 284.535 38.9159 284.88C39.3394 285.225 46.6969 277.244 46.8557 277.271C47.2791 277.722 39.26 286.073 39.657 286.497C40.0539 286.921 47.3056 278.729 47.5967 278.915C48.179 279.551 40.5568 286.683 40.5568 286.683L47.9143 279.577C48.1525 279.816 41.192 287.876 41.6154 288.327C41.6154 288.327 48.2054 281.645 48.3642 281.804C48.523 281.964 41.6419 288.883 41.9595 289.201L48.8142 282.6C49.4758 283.263 44.2356 291.057 44.2356 291.057C44.2356 291.057 49.0788 286.232 49.2111 286.232C49.3435 286.232 45.5853 292.595 45.9558 292.966C46.3264 293.337 50.2433 288.883 50.2433 288.883C50.2433 288.883 46.3528 293.974 46.7498 294.398L50.1904 291.057C49.4068 292.455 48.5222 293.793 47.5438 295.061C47.5438 295.061 50.1904 292.065 50.3756 292.409C49.5114 293.695 48.7587 295.052 48.126 296.466L51.0373 293.656C50.8966 295.318 50.5862 296.961 50.111 298.56C50.111 298.56 51.5137 297.155 51.5137 297.182C51.5137 297.208 50.8785 298.826 50.8785 298.826L51.9901 297.792C51.9901 297.792 51.1961 299.197 51.2755 299.276L51.9901 298.587" stroke="url(#paint12_linear_1734_11290)" stroke-width="0.51511" stroke-linecap="round" stroke-linejoin="round"></path><path d="M261.891 120.263C262.235 120.581 267.554 114.059 267.925 114.43C268.295 114.801 263.293 118.672 263.664 119.043C264.952 117.943 266.171 116.766 267.316 115.517" stroke="url(#paint13_linear_1734_11290)" stroke-width="0.51511" stroke-linecap="round" stroke-linejoin="round"></path><path d="M254.984 119.336C256.042 120.423 267.634 104.674 268.852 105.92L252.787 123.684C254.402 125.328 269.09 107.326 269.381 107.617C269.672 107.909 252.602 126.998 252.84 127.157C253.078 127.316 269.487 111.249 269.487 111.249C270.625 112.442 253.343 127.422 253.343 127.422C254.375 128.509 267.793 110.905 269.064 112.23L254.64 129.808L257.445 127.157L255.963 132.459L257.286 131.16L256.757 132.698C256.937 132.553 257.105 132.393 257.26 132.221" stroke="url(#paint14_linear_1734_11290)" stroke-width="0.51511" stroke-linecap="round" stroke-linejoin="round"></path><path d="M261.547 93.2472L264.564 90.3308C264.259 91.0866 263.906 91.8217 263.505 92.5314C263.505 92.5314 264.405 91.4443 264.511 91.5504" stroke="url(#paint15_linear_1734_11290)" stroke-width="0.51511" stroke-linecap="round" stroke-linejoin="round"></path><path d="M255.486 86.009L256.545 84.975L255.592 86.3802L257.101 84.922C256.923 85.9815 256.87 87.0581 256.942 88.13C257.154 88.3421 258.742 86.0886 258.9 86.2211C258.518 87.465 258.261 88.7439 258.133 90.0389C259.611 88.3818 261.212 86.8397 262.923 85.4257C263.453 85.9825 257.948 92.2925 257.974 92.3455C258.001 92.3985 263.505 86.062 263.982 86.5393C264.458 87.0165 258.08 96.0838 258.08 96.0838C258.477 96.4815 264.564 89.8268 264.564 89.8268C265.093 90.3571 258.371 96.561 258.795 96.9852L259.456 96.3489C259.407 97.0886 259.265 97.8191 259.033 98.523L261.071 96.561C261.071 96.561 260.647 99.716 260.674 99.7425C260.7 99.769 263.32 97.2769 263.32 97.2769C263.32 97.2769 260.965 99.9281 261.177 100.14C261.388 100.352 263.4 97.8336 263.479 97.9132C263.558 97.9927 261.177 101.413 261.256 101.492C261.335 101.572 264.194 98.4699 264.194 98.4699L261.97 102.261C261.97 102.261 264.617 99.3183 264.776 99.61C263.788 100.88 262.903 102.228 262.129 103.64C262.129 103.64 264.776 100.511 265.067 100.803C265.358 101.095 261.335 106.848 261.415 106.901C261.494 106.954 265.835 101.864 266.205 102.261C266.576 102.659 260.197 109.605 260.488 109.87L267.211 103.295C267.634 103.772 259.456 111.249 260.065 111.885C260.674 112.522 268.005 103.932 268.005 104.091C268.693 104.78 257.868 114.934 258.371 115.438C258.371 115.438 268.322 105.231 268.613 105.522" stroke="url(#paint16_linear_1734_11290)" stroke-width="0.51511" stroke-linecap="round" stroke-linejoin="round"></path><path d="M222.669 231.297L223.304 230.714C222.942 231.622 222.526 232.507 222.06 233.365C222.06 233.365 226.665 227.877 227.194 228.408C227.194 228.408 221.001 236.865 221.451 237.316C222.986 238.933 244.582 214.913 244.582 214.913C245.191 215.549 221.98 240.444 222.113 240.55L245.323 218.068L222.589 240.974C222.589 240.974 244.238 218.041 245.218 219.075C247.361 221.302 223.198 242.221 223.198 242.221C224.574 243.679 245.482 220.666 245.482 220.666C245.932 221.143 224.309 242.247 224.812 242.883C224.812 242.883 245.191 220.586 246.488 221.938C247.785 223.291 224.971 242.751 226.321 244.129C228.147 246.038 247.176 223.98 247.176 223.98C247.176 223.98 229.206 244.739 229.364 244.898C229.523 245.057 247.467 224.934 248.685 226.34C248.685 226.34 231.191 245.27 231.561 245.667C231.932 246.065 249.426 228.354 249.426 228.381C249.875 228.832 231.455 244.633 232.62 245.853L247.282 231.695C247.891 232.331 233.705 246.304 233.705 246.304L246.197 234.214C246.726 234.744 235.61 246.993 235.954 247.258C236.298 247.523 245.217 238.217 245.244 238.244C245.27 238.27 237.066 247.205 237.304 247.337C237.542 247.47 244.529 239.702 244.847 240.047C242.944 242.345 241.177 244.753 239.554 247.258C239.554 247.258 243.894 243.042 243.894 243.042C243.894 243.042 241.724 246.144 241.856 246.277C241.989 246.41 243.312 244.527 243.471 244.686" stroke="url(#paint17_linear_1734_11290)" stroke-width="0.51511" stroke-linecap="round" stroke-linejoin="round"></path><path d="M238.099 214.648L240.746 212.183L237.464 215.656L241.54 211.705C241.54 211.705 233.6 220.667 234.5 221.568C235.4 222.469 242.625 212.554 243.207 213.164C243.207 213.164 232.091 223.212 232.991 224.14C232.991 224.14 243.26 213.19 243.763 213.72" stroke="url(#paint18_linear_1734_11290)" stroke-width="0.51511" stroke-linecap="round" stroke-linejoin="round"></path><path d="M312.547 230.556C312.97 231.006 317.999 224.272 318.502 224.776L314.796 230.609C315.193 231.006 318.952 226.42 319.031 226.499C319.11 226.579 316.384 232.544 316.384 232.597C317.666 231.49 318.885 230.313 320.037 229.071C320.301 229.336 316.834 232.756 316.834 232.756C316.834 232.756 319.825 229.336 320.09 229.601L318.925 234.453C318.925 234.453 322.419 231.086 322.419 231.112V235.036C322.419 235.036 324.43 233.074 324.43 233.101L323.557 234.479C323.926 234.18 324.271 233.852 324.589 233.498" stroke="url(#paint19_linear_1734_11290)" stroke-width="0.51511" stroke-linecap="round" stroke-linejoin="round"></path><path d="M281.767 222.309L283.488 220.666L281.582 222.972L284.229 220.321C284.229 220.321 281.423 225.226 281.847 225.623C282.27 226.021 285.711 221.328 285.975 221.62C285.017 223.291 284.261 225.071 283.726 226.923C285.054 225.459 286.487 224.095 288.013 222.84C288.384 223.211 285.208 227.638 285.234 227.665C285.261 227.691 289.628 222.681 289.998 223.078C289.194 225.498 288.12 227.82 286.796 229.998C287.484 230.714 298.388 218.783 298.388 218.783C299.261 219.711 287.431 229.574 288.146 230.316L300.585 218.253C301.802 219.526 289.337 230.899 289.337 230.899L302.94 217.643C302.94 217.643 292.512 230.157 292.724 230.369C292.936 230.581 306.539 217.298 306.539 217.298C306.539 217.298 292.724 229.388 293.756 230.555C294.206 231.032 306.698 217.298 306.989 217.67C307.28 218.041 294.55 230.555 294.841 230.926C295.133 231.297 308.524 217.67 308.524 217.67C309.715 218.916 297.012 230.475 297.012 230.475C297.012 230.475 308.921 217.06 309.874 218.041C309.874 218.041 297.647 230.051 298.308 230.714C298.308 230.714 309.768 217.458 310.8 218.624C310.8 218.624 299.102 232.172 299.261 232.358C299.42 232.543 311.806 218.041 312.891 219.101C313.129 219.34 299.208 233.259 299.658 233.869L314.479 219.419C315.353 220.321 298.6 234.134 299.764 235.327C300.929 236.52 315.644 219.658 315.855 219.764C316.914 220.851 299.579 236.494 300.346 237.315C300.346 237.315 316.517 220.692 317.02 221.196C317.523 221.7 305.507 236.149 305.507 236.149C306.513 237.209 317.734 224.324 317.734 224.324L307.598 235.38C307.598 235.38 310.245 232.358 310.509 232.57" stroke="url(#paint20_linear_1734_11290)" stroke-width="0.51511" stroke-linecap="round" stroke-linejoin="round"></path><path d="M306.54 242.989C306.54 242.989 307.836 241.584 307.916 241.664L305.772 245.959C306.037 246.197 308.419 243.307 308.419 243.307C308.419 243.307 304.899 250.174 304.978 250.254C306.366 249.06 307.691 247.794 308.948 246.462C309.239 246.781 305.137 250.704 305.137 250.704C305.137 250.704 308.577 246.807 308.869 247.125L304.952 254.628C304.952 254.628 310.086 249.564 310.245 249.617L303.787 259.798C304.316 260.329 311.542 252.136 311.727 252.216" stroke="url(#paint21_linear_1734_11290)" stroke-width="0.51511" stroke-linecap="round" stroke-linejoin="round"></path><path d="M282.721 251.766L284.336 250.202C283.599 251.507 282.768 252.757 281.848 253.94C281.848 253.94 286.347 248.638 286.85 249.115C286.85 249.115 271.923 265.022 272.823 266.03C273.723 267.037 289.788 249.619 289.788 249.619C290.238 250.069 271.579 267.196 271.658 267.276L289.788 249.725" stroke="url(#paint22_linear_1734_11290)" stroke-width="0.51511" stroke-linecap="round" stroke-linejoin="round"></path><path d="M237.728 291.029L240.984 287.901L237.305 291.931L242.598 286.92C242.598 286.92 236.14 294.714 236.881 295.483C237.623 296.252 247.23 284.03 247.971 284.878C247.971 284.878 236.326 297.18 237.384 298.134C237.384 298.134 252.999 281.511 253.767 282.227C255.275 283.791 237.887 299.619 237.887 299.752C237.887 299.884 259.722 274.989 261.548 276.871C263.374 278.754 238.152 303.384 238.152 303.384C241.381 306.725 292.433 250.889 292.433 250.889C296.721 255.343 235.32 300.865 238.734 304.418L293.148 251.764C298.706 257.517 238.602 306.247 238.602 306.247L294.18 252.506C294.18 252.506 238.602 307.069 239.634 308.183C241.619 310.224 295.212 254.283 295.212 254.283C295.212 254.283 235.558 303.994 239.899 308.501C241.804 310.489 293.73 253.302 295.292 254.919C295.292 254.919 238.602 308.739 239.713 309.986C241.539 311.894 295.742 255.794 295.742 255.794C301.035 261.335 240.534 310.861 240.534 310.861C240.534 310.861 292.089 252.957 296.112 257.119C296.112 257.119 237.887 309.058 240.772 312.133C240.772 312.133 291.957 253.805 296.35 258.419C296.35 258.419 239.555 314.334 240.375 315.156C240.375 315.156 292.91 255.025 297.541 259.85C298.468 260.778 239.078 313.856 241.381 316.243L298.865 260.566C301.961 263.774 240.375 310.516 244.53 314.837C248.685 319.159 300.109 260.407 300.4 260.752C303.655 264.119 247.706 309.508 250.114 312.001C250.114 312.001 310.033 250.306 311.886 252.241C313.738 254.177 259.907 306.353 259.907 306.353C264.115 310.701 312.839 255.131 312.839 255.131L267 302.854C267 302.854 311.092 253.938 314.215 257.173C314.215 257.173 263.003 298.691 267.079 302.933C269.117 305.054 311.648 254.256 314.427 257.119L273.563 299.884C273.563 299.884 313.5 257.066 315.618 259.267L278.089 299.036C279.068 300.07 316.914 261.494 316.914 261.494C316.914 261.494 280.312 297.79 281.529 299.036C281.529 299.036 314.824 259.559 318.582 263.323C322.34 267.088 282.482 300.176 283.303 300.998C284.732 302.483 318.952 266.531 318.952 266.531L283.409 300.998C286.32 304.02 319.032 266.531 319.032 266.531C320.117 267.618 283.223 300.759 283.567 300.998C283.911 301.236 315.485 263.164 318.952 266.744C318.952 266.744 283.938 302.032 285.208 303.331L319.138 270.508C319.138 270.508 284.388 301.952 286.002 303.623L318.661 272.02C321.758 275.254 288.172 304.047 288.172 304.047C290.607 306.698 316.888 273.849 318.105 275.122C318.105 275.122 288.993 304.285 289.152 304.63C290.793 306.327 317.761 276.951 317.761 276.951C318.238 277.428 289.549 303.463 290.607 304.577C292.751 306.804 315.723 277.852 316.941 279.098C319.217 281.458 292.01 304.71 292.01 304.71C293.783 306.565 314.321 283.128 314.321 283.128C314.321 283.128 292.539 304.047 293.148 304.683C293.148 304.683 310.113 287.715 310.404 288.007C311.409 289.067 294.524 304.391 294.524 304.391C295.265 305.134 306.275 293.044 306.275 293.044C307.069 293.866 294.683 304.604 294.71 304.63C294.736 304.657 302.649 296.862 302.649 296.862" stroke="url(#paint23_linear_1734_11290)" stroke-width="0.51511" stroke-linecap="round" stroke-linejoin="round"></path><path d="M54.875 276.422L56.2512 275.07C56.0083 275.822 55.7166 276.557 55.3779 277.27C55.3779 277.27 62.3119 268.999 63.1059 269.794C63.1059 269.794 56.2248 278.861 56.6747 279.365C57.1246 279.869 63.9793 272.286 63.9793 272.286C63.9793 272.286 58.0244 281.831 58.0774 281.884L65.1438 275.043L58.4744 282.387C60.5715 280.052 62.8264 277.864 65.2232 275.839C65.9378 276.581 58.6596 284.031 58.6596 284.031C59.1095 284.482 65.6996 277.217 65.6996 277.217C65.6996 277.217 59.136 285.383 59.3742 285.595C59.6124 285.807 65.8848 278.49 66.2818 278.914C66.6788 279.338 59.0566 287.557 59.5595 288.088C60.0623 288.618 66.2024 281.672 66.2024 281.672C66.2024 281.672 60.9092 290.315 61.068 290.368C61.2268 290.421 66.5994 284.27 66.9699 284.641C67.3404 285.012 62.259 291.72 62.3649 291.852C62.4707 291.985 67.8168 286.55 67.8433 286.55C67.8698 286.55 62.7354 291.985 63.0794 292.356L68.0286 287.584C66.7254 289.559 65.2932 291.446 63.7411 293.231L68.1609 288.883C68.3726 289.095 64.9585 294.848 65.0644 294.954C65.1702 295.06 68.9549 291.163 68.9813 291.19C69.0078 291.216 65.8584 295.379 65.9113 295.432C65.9642 295.485 69.0343 292.144 69.1666 292.277C68.4704 293.518 67.8516 294.802 67.314 296.121C67.314 296.121 69.4842 294 69.4842 294C69.4842 294 69.987 296.253 70.0664 296.333C70.1458 296.412 70.5428 295.776 70.5693 295.829" stroke="url(#paint24_linear_1734_11290)" stroke-width="0.51511" stroke-linecap="round" stroke-linejoin="round"></path><path d="M61.0418 269.184L61.9152 268.362L61.1212 269.582L62.3121 268.442C62.3121 268.442 60.4331 270.855 60.6713 271.093C60.9095 271.332 62.0475 269.502 62.1798 269.635" stroke="url(#paint25_linear_1734_11290)" stroke-width="0.51511" stroke-linecap="round" stroke-linejoin="round"></path><path d="M131.625 217.591L132.392 216.848L131.651 218.041L132.71 217.034C132.71 217.034 131.228 220.878 131.546 221.196C131.863 221.515 133.133 219.42 133.266 219.526C132.45 221.072 131.819 222.71 131.387 224.404C132.347 223.333 133.392 222.34 134.51 221.435C134.88 221.806 131.598 226.34 131.625 226.393C131.651 226.446 135.277 222.23 135.568 222.549C135.031 224.661 134.258 226.706 133.266 228.646C133.425 228.832 136.151 225.836 136.151 225.836C136.151 225.836 134.589 227.639 134.695 227.745L136.045 226.446" stroke="url(#paint26_linear_1734_11290)" stroke-width="0.51511" stroke-linecap="round" stroke-linejoin="round"></path><path d="M173.391 230.555L174.582 229.362L173.814 230.582L175.27 229.176C175.296 230.069 175.412 230.958 175.614 231.828C175.773 232.013 177.016 230.237 177.149 230.343C177.127 231.318 177.18 232.293 177.308 233.259C177.907 232.57 178.562 231.932 179.266 231.35C179.134 232.317 178.903 233.268 178.578 234.187C178.578 234.187 180.828 231.536 181.013 231.828C180.883 233.407 180.599 234.97 180.166 236.494C181.191 235.691 182.147 234.804 183.024 233.843C183.236 234.055 181.092 236.945 181.251 237.13L183.898 234.479C184.215 234.797 181.807 238.27 181.807 238.27L185.194 234.983C185.194 234.983 183.633 239.198 183.712 239.251C185.017 238.114 186.263 236.911 187.444 235.645C187.444 235.645 184.03 239.172 184.295 239.463C184.559 239.755 187.576 236.096 187.682 236.176C187.788 236.255 184.559 240.444 184.665 240.524C184.771 240.603 188.714 236.6 188.714 236.6L186.068 240.921C186.068 240.921 189.376 237.183 189.641 237.475C188.565 238.817 187.601 240.245 186.756 241.743C186.756 241.743 189.667 238.111 190.091 238.509C190.514 238.907 187.206 243.811 187.285 243.811C187.365 243.811 191.308 239.225 191.652 239.596C191.996 239.967 188.212 244.607 188.397 244.898L192.737 240.312C193.002 240.603 188.688 245.243 189.032 245.614C189.376 245.985 193.981 240.762 194.008 240.815C194.034 240.868 189.72 247.099 190.091 247.364C190.461 247.629 195.384 241.849 195.622 242.061C195.86 242.274 192.605 248.822 192.605 248.822C193.028 249.273 197.501 244.076 197.501 244.076L194.166 250.625C194.166 250.625 199.46 244.739 199.83 245.137C199.83 245.137 193.505 250.439 194.034 250.917C194.563 251.394 199.751 244.686 200.095 245.057L196.178 251.924C197.996 249.833 199.988 247.899 202.133 246.144L197.819 253.674C197.977 253.833 204.462 247.231 204.462 247.231C204.462 247.231 200.201 254.416 200.386 254.416C200.571 254.416 206.42 247.231 207.108 247.921C207.796 248.61 202.397 255.875 202.53 255.875C204.798 253.959 206.938 251.896 208.934 249.697L202.635 255.848C203.191 256.431 209.04 249.644 209.04 249.644C209.04 249.644 202.794 255.875 202.847 255.928C202.9 255.981 208.431 249.193 209.093 249.883C207.496 252.527 206.039 255.252 204.726 258.049C204.726 258.049 211.263 251.924 211.263 251.924C209.233 253.945 207.357 256.116 205.653 258.42L211.184 253.117C211.66 253.594 207.796 258.95 207.796 258.95C207.796 258.95 211.343 255.185 211.502 255.344C211.66 255.503 208.855 259.454 208.855 259.48C209.803 258.665 210.688 257.779 211.502 256.829C211.502 256.829 209.543 259.03 209.622 259.109C209.702 259.189 210.972 257.624 211.052 257.704" stroke="url(#paint27_linear_1734_11290)" stroke-width="0.51511" stroke-linecap="round" stroke-linejoin="round"></path><path d="M218.144 257.067L220.552 254.734L217.006 258.632L221.267 254.416C221.267 254.416 219.203 258.764 219.573 259.135C219.944 259.506 223.331 254.946 223.596 255.238C223.078 256.562 222.714 257.94 222.511 259.347C223.69 258.011 224.974 256.77 226.348 255.636C226.613 255.901 224.76 259.294 224.76 259.321C224.76 259.347 228.36 255.238 228.651 255.556C228.663 256.951 228.548 258.344 228.307 259.719C228.519 259.957 232.091 256.06 232.091 256.06C232.091 256.06 230.08 259.241 230.239 259.427L233.865 255.927C234.156 256.245 231.747 259.719 231.747 259.719L236.088 255.503C236.088 255.503 235.188 259.135 235.214 259.188C236.818 257.794 238.346 256.316 239.793 254.761C239.793 254.761 235.823 258.738 236.141 259.056C236.458 259.374 240.375 254.84 240.375 254.973C240.375 255.105 237.146 259.347 237.252 259.427C237.358 259.506 242.228 254.602 242.228 254.602L239.581 258.923C239.581 258.923 243.736 254.204 244.08 254.549C242.964 255.93 241.963 257.402 241.09 258.95C241.09 258.95 245.06 254.416 245.457 254.681C245.457 254.681 243.048 259.48 243.101 259.533C243.154 259.586 248.156 253.78 248.58 254.23C249.003 254.681 245.219 259.188 245.404 259.374L251.173 253.806C251.438 254.071 247.045 258.791 247.389 259.109C247.733 259.427 253.608 253.17 253.608 253.197C253.608 253.223 249.718 259.056 249.956 259.294C250.194 259.533 256.546 252.56 256.731 252.746C256.916 252.931 256.017 257.279 256.017 257.279C256.44 257.73 260.913 252.534 260.913 252.534L260.41 255.185C260.41 255.185 261.971 253.382 262.104 253.541" stroke="url(#paint28_linear_1734_11290)" stroke-width="0.51511" stroke-linecap="round" stroke-linejoin="round"></path><path d="M109.766 15.2997L111.459 13.656L108.813 16.5989L112.412 13.1522C112.412 13.1522 107.728 19.6213 108.31 20.2311C108.892 20.8409 116.408 11.2433 116.991 11.8266C116.991 11.8266 111.698 18.985 112.174 19.5418C112.174 19.5418 121.437 9.65256 121.913 10.1298C122.39 10.607 115.112 18.7199 115.191 18.7994C115.27 18.8789 124.772 7.84971 125.566 8.75113C126.36 9.65256 119.875 18.0836 119.875 18.0836C120.537 18.7464 130.806 7.47853 130.806 7.47853C131.547 8.22088 121.675 16.7049 122.257 17.3147L132.976 6.94828C133.929 7.95576 124.216 17.1821 124.216 17.1821L135.596 6.1529C135.596 6.1529 128.159 15.8035 128.318 16.0686C128.477 16.3337 139.804 4.98635 139.804 4.98635C139.804 4.98635 128.53 14.9551 129.377 15.8035C129.774 16.2277 140.228 4.6682 140.545 5.01286C140.863 5.35752 130.568 15.6179 130.779 15.883C130.991 16.1481 142.61 4.4561 142.61 4.4561C143.562 5.46357 133.267 15.0611 133.267 15.0611C133.267 15.0611 143.695 3.31606 144.515 4.16446C144.515 4.16446 134.379 14.3718 134.908 14.9551C134.908 14.9551 145.15 3.23652 146.05 4.16446C146.05 4.16446 136.84 15.3793 136.972 15.5118C137.105 15.6444 148.326 2.54719 149.306 3.68723C149.491 3.87282 139.01 14.8225 139.46 15.2732L151.952 3.18349C152.561 3.81979 140.969 13.7885 141.816 14.69C142.663 15.5914 154.228 2.54719 154.308 2.54719C154.996 3.26303 144.304 13.7885 144.806 14.3188C144.806 14.3188 156.875 1.88438 157.245 2.25555C155.477 5.5169 153.543 8.68492 151.449 11.7471C152.27 12.5955 161.109 2.54719 161.109 2.54719L158.33 8.4595C158.33 8.4595 164.418 1.61925 164.868 2.09648C164.868 2.09648 157.695 8.03529 158.251 8.64508C158.807 9.25487 164.788 1.5132 165.185 1.9374L162.724 7.55807C164.541 5.4904 166.523 3.57511 168.652 1.83135L166.852 6.92177C166.985 7.08084 172.146 1.61925 172.146 1.61925C172.146 1.61925 172.384 4.56215 172.437 4.64168C172.49 4.72122 175.745 0.929923 176.089 1.3011L177.942 3.07744C178.424 2.67898 178.875 2.24471 179.291 1.77833L178.127 2.9979C178.127 3.13047 179.45 1.7253 179.45 1.7253L178.577 2.81232C178.577 2.81232 179.503 1.67228 179.503 1.83135C179.503 1.99043 181.171 2.20253 181.223 2.25555L182.15 1.56622" stroke="url(#paint29_linear_1734_11290)" stroke-width="0.51511" stroke-linecap="round" stroke-linejoin="round"></path><path d="M214.357 6.4973L215.151 5.72844L214.675 6.62987L215.681 5.67542C215.703 6.56577 215.801 7.45264 215.972 8.32667C216.157 8.51226 217.48 6.62987 217.586 6.76243C217.378 7.87277 217.272 8.99982 217.269 10.1295C218.156 9.16798 219.121 8.28123 220.153 7.47827C220.418 7.76991 218.301 11.4021 218.301 11.4286C218.301 11.4552 221.847 7.26617 222.244 7.58432C221.605 9.79037 220.717 11.9163 219.598 13.9208C219.915 14.2655 224.891 8.83041 224.891 8.83041C224.891 8.83041 220.365 14.1329 220.683 14.4776L225.976 9.17508C226.532 9.75835 221.265 15.4851 221.265 15.4851L227.537 9.38718C227.537 9.38718 224.07 15.6441 224.176 15.8032C226.328 13.9071 228.377 11.8981 230.316 9.78486C230.316 9.78486 224.494 15.2199 224.997 15.8032C225.5 16.3865 230.502 10.1826 230.66 10.3416C230.819 10.5007 225.897 16.1479 226.002 16.2539C226.108 16.36 231.904 10.5007 231.904 10.5007C232.354 10.9779 228.093 15.8032 228.093 15.8032C228.093 15.8032 232.619 10.6863 232.989 11.0575C231.697 12.5474 230.521 14.134 229.469 15.8032C229.469 15.8032 233.386 11.2696 233.757 11.6673C233.757 11.6673 231.401 16.413 231.481 16.466C231.56 16.5191 235.451 11.9324 235.795 12.277C236.139 12.6217 234.207 15.8032 234.313 15.8032L237.436 12.7808C237.436 12.9133 235.768 15.7237 235.954 15.9093C236.139 16.0949 238.997 12.9929 239.024 13.152C239.05 13.311 236.986 17.3675 237.145 17.5265C237.303 17.6856 240.77 13.8413 240.876 13.9473C240.982 14.0534 239.712 18.8522 239.712 18.8522L243.02 15.4586L241.273 20.5755C241.273 20.5755 245.243 16.1214 245.667 16.413C246.09 16.7046 240.85 20.4429 241.22 20.8671C241.591 21.2913 245.667 16.0418 245.799 16.3335L243.417 21.8746C244.82 20.2664 246.36 18.7848 248.022 17.447L245.667 23.1472C245.667 23.2533 250.378 18.4545 250.378 18.4545C250.378 18.4545 249.795 22.1662 249.875 22.2723C249.954 22.3783 252.733 18.8522 253.077 19.1703C253.421 19.4885 254.294 21.2648 254.321 21.3178C254.347 21.3709 254.93 20.7346 254.93 20.7346" stroke="url(#paint30_linear_1734_11290)" stroke-width="0.51511" stroke-linecap="round" stroke-linejoin="round"></path><path d="M264.193 62.5713C264.197 62.5978 264.195 62.6248 264.187 62.6504C264.179 62.6761 264.166 62.6998 264.149 62.72C264.131 62.7401 264.109 62.7562 264.085 62.7672C264.061 62.7781 264.034 62.7836 264.008 62.7834C262.79 62.7834 256.279 62.7834 254.877 59.6814C253.339 56.6741 250.992 54.1578 248.101 52.4169C245.243 50.508 241.22 37.4373 238.203 43.5617C237.696 44.632 237.549 45.8378 237.783 46.999C238.016 48.1602 238.619 49.2145 239.5 50.0043C239.675 50.1196 239.821 50.2725 239.929 50.4518C240.037 50.6311 240.103 50.8323 240.124 51.0407C240.144 51.2491 240.117 51.4594 240.046 51.6562C239.975 51.853 239.861 52.0314 239.712 52.1783C238.336 54.0342 236.615 53.9812 233.625 54.8296C230.634 55.678 228.331 69.0403 230.978 68.4571C233.625 67.8738 236.986 65.4346 240.691 66.7072C244.396 67.9798 259.217 76.9941 254.083 80.8384C253.183 81.5278 246.461 74.661 244.29 73.9717C242.808 73.4679 246.117 78.6644 246.619 80.2817C248.352 85.1048 248.838 90.2887 248.033 95.3507C247.228 100.413 245.158 105.189 242.014 109.233C240.082 112.044 248.763 115.066 248.446 118.964C248.128 122.861 245.799 127.421 243.602 126.652C241.406 125.883 243.391 119.838 240.294 118.168C237.198 116.498 231.64 109.923 229.205 113.634C226.77 117.346 223.753 126.254 227.352 128.216C230.952 130.178 236.562 130.258 237.753 138.821C238.944 147.385 229.575 172.917 216.581 176.522C203.586 180.128 204.618 183.866 209.011 187.843C213.405 191.82 221.53 203.751 211.923 210.511C202.315 217.272 202.765 207.86 196.387 205.66C190.009 203.459 189.321 212.792 193.476 217.299C197.631 221.806 205.941 226.154 205.73 231.43C205.518 236.706 203.083 234.585 199.431 233.047C195.778 231.509 196.308 226.711 191.067 223.211C185.827 219.711 188.236 211.519 184.954 205.235C181.672 198.952 175.85 200.543 171.721 196.46C167.592 192.377 170.848 187.18 166.269 182.302C161.69 177.424 152.11 174.057 147.584 182.01C143.857 188.695 138.434 194.274 131.863 198.183C126.835 201.099 133.848 208.788 129.561 214.568C127.852 217 125.675 219.065 123.156 220.639C122.966 220.744 122.756 220.807 122.539 220.824C122.323 220.84 122.106 220.809 121.902 220.734C121.699 220.658 121.514 220.54 121.36 220.386C121.207 220.233 121.088 220.048 121.012 219.844C118.577 213.64 109.579 189.858 110.426 181.029C111.405 170.822 86.2889 169.205 77.7669 163.584C69.2449 157.964 62.893 139.908 60.22 142.003C57.5469 144.097 57.8116 165.361 63.5018 165.069C66.5928 164.85 69.6993 165.046 72.7384 165.652V165.652C73.2148 166.288 79.8842 175.117 73.003 181.56C66.1219 188.002 46.6694 195.293 43.4141 192.615C40.1588 189.938 41.6145 144.893 37.724 141.393C33.8335 137.893 34.7333 166.262 34.7333 172.572C34.7333 178.882 36.3213 194.418 39.2325 196.089C42.1438 197.759 53.8682 203.91 55.6414 200.887C57.4146 197.865 55.3503 224.749 40.7146 233.816C26.079 242.883 44.8962 271.862 46.987 277.244C48.6015 281.406 50.0306 293.151 50.9834 298.295C51.1157 299.01 50.9834 298.931 50.4276 298.295C34.2844 281.666 21.6026 261.988 13.1195 240.406C4.63649 218.823 0.521596 195.766 1.01414 172.576C1.50668 149.386 6.59682 126.525 15.9886 105.323C25.3803 84.1216 38.8862 65.0019 55.7208 49.0764V49.0764C56.2236 48.8908 103.359 32.1348 107.223 36.6685C111.087 41.2021 99.7865 53.2123 107.223 51.5155C114.66 49.8187 127.735 44.6753 131.043 47.5121C134.351 50.349 137.897 45.7623 144.276 43.8004C150.654 41.8384 165.448 36.0852 165.951 35.8466C174.468 37.0239 183.106 37.0239 191.623 35.8466C203.745 33.8846 221.583 20.6814 229.787 23.4122C237.992 26.143 243.496 28.2375 245.825 32.8772C248.154 37.5169 245.984 40.6188 248.287 43.111C250.589 45.6032 254.136 47.9893 256.65 50.6936C259.164 53.3979 263.478 59.4163 264.193 62.5713Z" stroke="url(#paint31_linear_1734_11290)" stroke-width="1.82911" stroke-miterlimit="10"></path><path d="M255.644 86.8572C255.644 86.8572 258.9 90.0387 257.92 91.656C256.941 93.2733 259.006 98.4167 259.985 99.2916C260.946 100.546 261.563 102.03 261.777 103.597C261.99 105.164 261.792 106.76 261.202 108.226C259.455 111.938 259.561 115.093 257.391 116.71C255.221 118.328 250.96 124.134 252.813 126.865C254.665 129.595 256.359 133.838 257.153 132.75C257.947 131.663 256.624 126.971 258.582 123.71C260.541 120.449 264.775 119.229 267.395 115.517C268.555 114.126 269.277 112.421 269.47 110.618C269.663 108.816 269.319 106.996 268.48 105.39C266.945 101.996 262.896 96.4548 260.964 96.3487C259.032 96.2427 259.191 95.0231 260.964 93.6975C262.737 92.3718 263.902 93.9096 264.669 90.6485C265.437 87.3875 264.352 88.2359 263.584 85.8497C262.817 83.4636 261.202 86.5126 258.9 85.8497C256.597 85.1869 255.433 84.1264 255.644 86.8572Z" stroke="url(#paint32_linear_1734_11290)" stroke-width="1.82911" stroke-miterlimit="10"></path><path d="M222.669 230.927C221.346 233.764 219.837 238.297 222.669 241.346C225.501 244.395 239.131 249.114 242.36 245.694C245.589 242.274 245.377 232.438 248.42 229.787C251.464 227.135 245.192 222.602 245.668 219.155C246.144 215.709 243.418 210.061 240.004 212.527C236.59 214.993 234.499 224.272 230.715 226.367C226.93 228.461 222.669 230.927 222.669 230.927Z" stroke="url(#paint33_linear_1734_11290)" stroke-width="1.82911" stroke-miterlimit="10"></path><path d="M281.898 222.15C284.121 217.404 289.415 226.048 292.485 222.15C297.619 215.893 313.049 216.079 316.516 220.904C319.162 224.51 318.315 228.858 321.65 230.555C324.985 232.252 326.176 234.187 321.65 235.088C317.124 235.99 314.716 226.949 311.381 231.483C310.354 233.213 308.898 234.649 307.155 235.653C305.412 236.656 303.44 237.192 301.43 237.209C296.904 237.819 301.43 232.994 299.022 231.165C296.613 229.335 288.091 232.066 286.583 229.362C285.074 226.657 279.384 227.559 281.898 222.15Z" stroke="url(#paint34_linear_1734_11290)" stroke-width="1.82911" stroke-miterlimit="10"></path><path d="M316.252 280.584C316.252 280.584 320.593 269.979 318.899 264.676C317.205 259.374 308.313 249.405 308.313 244.155C308.313 238.906 305.507 242.856 305.084 249.935C304.66 257.014 304.66 261.68 300.849 261.177C297.038 260.673 295.556 256.431 294.497 252.905C293.439 249.378 283.911 246.542 281.767 252.905C279.624 259.268 264.67 275.202 256.334 280.478C247.997 285.754 234.737 286.31 236.855 297.207C238.972 308.104 241.513 314.202 240.375 315.05C239.237 315.898 239.66 317.701 247.15 313.618C254.64 309.535 278.194 295.219 281.185 299.328C282.71 301.413 284.811 303.005 287.228 303.91C289.644 304.814 292.273 304.991 294.789 304.419C302.656 297.148 309.841 289.17 316.252 280.584Z" stroke="url(#paint35_linear_1734_11290)" stroke-width="1.82911" stroke-miterlimit="10"></path><path d="M55.8529 275.202C55.8529 275.202 61.1461 272.047 61.1461 269.555C61.1461 267.063 62.3371 268.813 64.5073 272.922C66.6775 277.032 65.6982 278.543 66.7569 283.739C67.8155 288.936 71.309 296.2 70.118 296.731C68.9271 297.261 61.1461 293.258 59.8493 288.194C58.5524 283.13 59.1082 283.236 56.5146 279.895C53.9209 276.555 54.3708 276.422 55.8529 275.202Z" stroke="url(#paint36_linear_1734_11290)" stroke-width="1.82911" stroke-miterlimit="10"></path><path d="M131.52 219.95C131.52 223.132 130.144 230.555 133.77 228.487C137.395 226.419 136.416 225.836 135.675 223.397C134.72 221.292 133.623 219.255 132.393 217.299C131.864 216.106 131.626 217.723 131.52 219.95Z" stroke="url(#paint37_linear_1734_11290)" stroke-width="1.82911" stroke-miterlimit="10"></path><path d="M173.494 230.105C173.494 230.105 188.633 243.361 188.765 245.562C188.897 247.762 206.762 260.276 209.303 259.375C211.843 258.473 211.949 253.356 210.785 250.97C209.62 248.584 197.552 244.05 195.673 242.407C192.97 240.027 190.104 237.839 187.098 235.858C184.107 234.108 174.817 226.976 173.494 230.105Z" stroke="url(#paint38_linear_1734_11290)" stroke-width="1.82911" stroke-miterlimit="10"></path><path d="M217.057 258.606C216.713 258.394 218.512 256.617 219.703 255.159C220.894 253.701 227.643 256.22 232.301 255.822C236.959 255.424 253.474 253.462 256.12 252.932C258.767 252.402 261.784 251.368 262.446 252.932C263.107 254.496 253.103 260.064 246.566 259.401C240.029 258.738 221.053 260.833 217.057 258.606Z" stroke="url(#paint39_linear_1734_11290)" stroke-width="1.82911" stroke-miterlimit="10"></path><path d="M182.412 1.56629C182.412 2.12306 172.646 4.93339 168.332 6.4181C162.775 8.35351 155.576 8.08839 153.353 10.6071C151.13 13.1258 141.972 15.618 136.415 15.3528C130.857 15.0877 112.807 19.7804 108.917 20.3107C105.026 20.8409 110.24 14.584 110.743 13.9742C131.41 5.63726 153.489 1.3704 175.769 1.40722C177.993 1.40722 180.189 1.43373 182.412 1.56629Z" stroke="url(#paint40_linear_1734_11290)" stroke-width="1.82911" stroke-miterlimit="10"></path><path d="M254.824 21.1049C254.03 23.0138 248.896 22.7752 245.826 22.9873C242.756 23.1994 235.822 15.0335 234.26 15.8554C232.699 16.6773 226.717 16.0145 223.197 15.8554C220.154 15.8024 215.734 8.37885 214.517 6.23133C214.495 6.18844 214.484 6.14075 214.484 6.09253C214.485 6.04432 214.498 5.99708 214.522 5.95505C214.545 5.91302 214.579 5.8775 214.62 5.85169C214.66 5.82587 214.707 5.81056 214.755 5.80713V5.80713C229.232 8.72351 247.44 15.6433 254.771 21.1049H254.824Z" stroke="url(#paint41_linear_1734_11290)" stroke-width="1.82911" stroke-miterlimit="10"></path><path d="M40.1074 234.347L48.2325 226.393C48.7618 226.95 42.2247 232.279 42.4894 232.544L46.618 228.54" stroke="url(#paint42_linear_1734_11290)" stroke-width="1.82911" stroke-linecap="round" stroke-linejoin="round"></path><path d="M131.863 198.13C132.604 198.872 145.096 184.29 145.599 184.873C146.102 185.457 134.378 194.71 135.383 195.744C138.159 193.336 140.809 190.788 143.323 188.108C143.323 188.108 136.389 194.285 136.759 194.683C136.759 194.683 141.894 188.93 142.264 189.381" stroke="url(#paint43_linear_1734_11290)" stroke-width="1.82911" stroke-linecap="round" stroke-linejoin="round"></path><defs><linearGradient id="paint0_linear_1734_11290" x1="-33.6641" y1="1.27521" x2="376.473" y2="26.8293" gradientUnits="userSpaceOnUse"><stop stop-color="#82CDFF"></stop><stop offset="1" stop-color="#6060EA"></stop></linearGradient><linearGradient id="paint1_linear_1734_11290" x1="39.2919" y1="226.391" x2="48.8674" y2="227.004" gradientUnits="userSpaceOnUse"><stop stop-color="#82CDFF"></stop><stop offset="1" stop-color="#6060EA"></stop></linearGradient><linearGradient id="paint2_linear_1734_11290" x1="130.488" y1="184.851" x2="146.633" y2="185.893" gradientUnits="userSpaceOnUse"><stop stop-color="#82CDFF"></stop><stop offset="1" stop-color="#6060EA"></stop></linearGradient><linearGradient id="paint3_linear_1734_11290" x1="190.973" y1="188.868" x2="218.207" y2="190.499" gradientUnits="userSpaceOnUse"><stop stop-color="#82CDFF"></stop><stop offset="1" stop-color="#6060EA"></stop></linearGradient><linearGradient id="paint4_linear_1734_11290" x1="205.694" y1="154.119" x2="236.581" y2="156.098" gradientUnits="userSpaceOnUse"><stop stop-color="#82CDFF"></stop><stop offset="1" stop-color="#6060EA"></stop></linearGradient><linearGradient id="paint5_linear_1734_11290" x1="228.712" y1="96.1257" x2="249.787" y2="96.9055" gradientUnits="userSpaceOnUse"><stop stop-color="#82CDFF"></stop><stop offset="1" stop-color="#6060EA"></stop></linearGradient><linearGradient id="paint6_linear_1734_11290" x1="140.597" y1="84.6797" x2="255.85" y2="89.3766" gradientUnits="userSpaceOnUse"><stop stop-color="#82CDFF"></stop><stop offset="1" stop-color="#6060EA"></stop></linearGradient><linearGradient id="paint7_linear_1734_11290" x1="243.113" y1="70.7592" x2="256.001" y2="71.6385" gradientUnits="userSpaceOnUse"><stop stop-color="#82CDFF"></stop><stop offset="1" stop-color="#6060EA"></stop></linearGradient><linearGradient id="paint8_linear_1734_11290" x1="232.549" y1="49.3633" x2="240.215" y2="49.9272" gradientUnits="userSpaceOnUse"><stop stop-color="#82CDFF"></stop><stop offset="1" stop-color="#6060EA"></stop></linearGradient><linearGradient id="paint9_linear_1734_11290" x1="237.152" y1="35.3132" x2="266.015" y2="36.9355" gradientUnits="userSpaceOnUse"><stop stop-color="#82CDFF"></stop><stop offset="1" stop-color="#6060EA"></stop></linearGradient><linearGradient id="paint10_linear_1734_11290" x1="41.7491" y1="22.7006" x2="260.96" y2="35.5774" gradientUnits="userSpaceOnUse"><stop stop-color="#82CDFF"></stop><stop offset="1" stop-color="#6060EA"></stop></linearGradient><linearGradient id="paint11_linear_1734_11290" x1="24.0609" y1="35.6475" x2="179.114" y2="43.7517" gradientUnits="userSpaceOnUse"><stop stop-color="#82CDFF"></stop><stop offset="1" stop-color="#6060EA"></stop></linearGradient><linearGradient id="paint12_linear_1734_11290" x1="-12.5244" y1="35.7062" x2="140.887" y2="40.4401" gradientUnits="userSpaceOnUse"><stop stop-color="#82CDFF"></stop><stop offset="1" stop-color="#6060EA"></stop></linearGradient><linearGradient id="paint13_linear_1734_11290" x1="261.285" y1="114.413" x2="268.393" y2="114.871" gradientUnits="userSpaceOnUse"><stop stop-color="#82CDFF"></stop><stop offset="1" stop-color="#6060EA"></stop></linearGradient><linearGradient id="paint14_linear_1734_11290" x1="251.112" y1="105.84" x2="270.833" y2="106.608" gradientUnits="userSpaceOnUse"><stop stop-color="#82CDFF"></stop><stop offset="1" stop-color="#6060EA"></stop></linearGradient><linearGradient id="paint15_linear_1734_11290" x1="261.245" y1="90.3297" x2="264.787" y2="90.5585" gradientUnits="userSpaceOnUse"><stop stop-color="#82CDFF"></stop><stop offset="1" stop-color="#6060EA"></stop></linearGradient><linearGradient id="paint16_linear_1734_11290" x1="254.174" y1="84.9106" x2="269.638" y2="85.3259" gradientUnits="userSpaceOnUse"><stop stop-color="#82CDFF"></stop><stop offset="1" stop-color="#6060EA"></stop></linearGradient><linearGradient id="paint17_linear_1734_11290" x1="218.627" y1="214.901" x2="251.548" y2="216.675" gradientUnits="userSpaceOnUse"><stop stop-color="#82CDFF"></stop><stop offset="1" stop-color="#6060EA"></stop></linearGradient><linearGradient id="paint18_linear_1734_11290" x1="231.857" y1="211.701" x2="244.58" y2="212.392" gradientUnits="userSpaceOnUse"><stop stop-color="#82CDFF"></stop><stop offset="1" stop-color="#6060EA"></stop></linearGradient><linearGradient id="paint19_linear_1734_11290" x1="311.343" y1="224.745" x2="325.464" y2="225.777" gradientUnits="userSpaceOnUse"><stop stop-color="#82CDFF"></stop><stop offset="1" stop-color="#6060EA"></stop></linearGradient><linearGradient id="paint20_linear_1734_11290" x1="277.967" y1="217.291" x2="320.053" y2="222.035" gradientUnits="userSpaceOnUse"><stop stop-color="#82CDFF"></stop><stop offset="1" stop-color="#6060EA"></stop></linearGradient><linearGradient id="paint21_linear_1734_11290" x1="302.993" y1="241.654" x2="312.347" y2="241.909" gradientUnits="userSpaceOnUse"><stop stop-color="#82CDFF"></stop><stop offset="1" stop-color="#6060EA"></stop></linearGradient><linearGradient id="paint22_linear_1734_11290" x1="269.845" y1="249.078" x2="291.145" y2="250.403" gradientUnits="userSpaceOnUse"><stop stop-color="#82CDFF"></stop><stop offset="1" stop-color="#6060EA"></stop></linearGradient><linearGradient id="paint23_linear_1734_11290" x1="228.591" y1="250.865" x2="325.038" y2="258.447" gradientUnits="userSpaceOnUse"><stop stop-color="#82CDFF"></stop><stop offset="1" stop-color="#6060EA"></stop></linearGradient><linearGradient id="paint24_linear_1734_11290" x1="53.3057" y1="269.73" x2="71.7829" y2="270.411" gradientUnits="userSpaceOnUse"><stop stop-color="#82CDFF"></stop><stop offset="1" stop-color="#6060EA"></stop></linearGradient><linearGradient id="paint25_linear_1734_11290" x1="60.4842" y1="268.361" x2="62.4405" y2="268.435" gradientUnits="userSpaceOnUse"><stop stop-color="#82CDFF"></stop><stop offset="1" stop-color="#6060EA"></stop></linearGradient><linearGradient id="paint26_linear_1734_11290" x1="130.91" y1="216.844" x2="136.523" y2="216.985" gradientUnits="userSpaceOnUse"><stop stop-color="#82CDFF"></stop><stop offset="1" stop-color="#6060EA"></stop></linearGradient><linearGradient id="paint27_linear_1734_11290" x1="169.579" y1="229.165" x2="214.241" y2="232.672" gradientUnits="userSpaceOnUse"><stop stop-color="#82CDFF"></stop><stop offset="1" stop-color="#6060EA"></stop></linearGradient><linearGradient id="paint28_linear_1734_11290" x1="212.496" y1="252.531" x2="258.606" y2="270.57" gradientUnits="userSpaceOnUse"><stop stop-color="#82CDFF"></stop><stop offset="1" stop-color="#6060EA"></stop></linearGradient><linearGradient id="paint29_linear_1734_11290" x1="100.871" y1="1.26845" x2="183.127" y2="21.2526" gradientUnits="userSpaceOnUse"><stop stop-color="#82CDFF"></stop><stop offset="1" stop-color="#6060EA"></stop></linearGradient><linearGradient id="paint30_linear_1734_11290" x1="210.3" y1="5.66891" x2="257.148" y2="12.4585" gradientUnits="userSpaceOnUse"><stop stop-color="#82CDFF"></stop><stop offset="1" stop-color="#6060EA"></stop></linearGradient><linearGradient id="paint31_linear_1734_11290" x1="-25.3456" y1="22.9393" x2="283.872" y2="41.3624" gradientUnits="userSpaceOnUse"><stop stop-color="#82CDFF"></stop><stop offset="1" stop-color="#6060EA"></stop></linearGradient><linearGradient id="paint32_linear_1734_11290" x1="250.641" y1="84.9041" x2="270.867" y2="85.3556" gradientUnits="userSpaceOnUse"><stop stop-color="#82CDFF"></stop><stop offset="1" stop-color="#6060EA"></stop></linearGradient><linearGradient id="paint33_linear_1734_11290" x1="218.243" y1="211.909" x2="251.399" y2="213.578" gradientUnits="userSpaceOnUse"><stop stop-color="#82CDFF"></stop><stop offset="1" stop-color="#6060EA"></stop></linearGradient><linearGradient id="paint34_linear_1734_11290" x1="276.931" y1="217.354" x2="327.108" y2="224.177" gradientUnits="userSpaceOnUse"><stop stop-color="#82CDFF"></stop><stop offset="1" stop-color="#6060EA"></stop></linearGradient><linearGradient id="paint35_linear_1734_11290" x1="228.363" y1="241.715" x2="325.35" y2="248.438" gradientUnits="userSpaceOnUse"><stop stop-color="#82CDFF"></stop><stop offset="1" stop-color="#6060EA"></stop></linearGradient><linearGradient id="paint36_linear_1734_11290" x1="53.0836" y1="268.393" x2="71.5801" y2="269.033" gradientUnits="userSpaceOnUse"><stop stop-color="#82CDFF"></stop><stop offset="1" stop-color="#6060EA"></stop></linearGradient><linearGradient id="paint37_linear_1734_11290" x1="130.752" y1="216.89" x2="136.779" y2="217.051" gradientUnits="userSpaceOnUse"><stop stop-color="#82CDFF"></stop><stop offset="1" stop-color="#6060EA"></stop></linearGradient><linearGradient id="paint38_linear_1734_11290" x1="169.694" y1="229.31" x2="214.221" y2="232.819" gradientUnits="userSpaceOnUse"><stop stop-color="#82CDFF"></stop><stop offset="1" stop-color="#6060EA"></stop></linearGradient><linearGradient id="paint39_linear_1734_11290" x1="212.468" y1="252.101" x2="259.443" y2="269.738" gradientUnits="userSpaceOnUse"><stop stop-color="#82CDFF"></stop><stop offset="1" stop-color="#6060EA"></stop></linearGradient><linearGradient id="paint40_linear_1734_11290" x1="99.9921" y1="1.39994" x2="183.247" y2="21.9631" gradientUnits="userSpaceOnUse"><stop stop-color="#82CDFF"></stop><stop offset="1" stop-color="#6060EA"></stop></linearGradient><linearGradient id="paint41_linear_1734_11290" x1="210.451" y1="5.80073" x2="257.008" y2="12.6227" gradientUnits="userSpaceOnUse"><stop stop-color="#82CDFF"></stop><stop offset="1" stop-color="#6060EA"></stop></linearGradient><linearGradient id="paint42_linear_1734_11290" x1="39.2919" y1="226.39" x2="48.8674" y2="227.003" gradientUnits="userSpaceOnUse"><stop stop-color="#82CDFF"></stop><stop offset="1" stop-color="#6060EA"></stop></linearGradient><linearGradient id="paint43_linear_1734_11290" x1="130.488" y1="184.851" x2="146.633" y2="185.893" gradientUnits="userSpaceOnUse"><stop stop-color="#82CDFF"></stop><stop offset="1" stop-color="#6060EA"></stop></linearGradient></defs></svg>