<svg xmlns="http://www.w3.org/2000/svg" width="83" height="82" viewBox="0 0 83 82" fill="none"><rect x="1" y="0.5" width="81" height="81" rx="40.5" stroke="url(#paint0_linear_1281_3560)"></rect><path d="M46.3475 54.3334C46.2675 54.3334 46.1742 54.32 46.0942 54.2934C43.4142 53.5334 40.6009 53.5334 37.9209 54.2934C37.4275 54.4267 36.9075 54.1467 36.7742 53.6534C36.6275 53.16 36.9209 52.64 37.4142 52.5067C40.4275 51.6534 43.6009 51.6534 46.6142 52.5067C47.1075 52.6534 47.4009 53.16 47.2542 53.6534C47.1209 54.0667 46.7475 54.3334 46.3475 54.3334Z" fill="url(#paint1_linear_1281_3560)"></path><path d="M51.613 33.48C50.2263 30.68 47.5463 28.6133 44.4396 27.9333C41.1863 27.2133 37.853 27.9867 35.3063 30.04C32.7463 32.08 31.293 35.1333 31.293 38.4C31.293 41.8533 33.3596 45.4667 36.4796 47.56V48.6667C36.4663 49.04 36.453 49.6133 36.9063 50.08C37.373 50.56 38.0663 50.6133 38.613 50.6133H45.453C46.173 50.6133 46.7196 50.4134 47.093 50.04C47.5996 49.52 47.5863 48.8533 47.573 48.4933V47.56C51.7063 44.7733 54.3063 38.8933 51.613 33.48ZM44.293 40.4933L42.8663 42.9733C42.6796 43.2933 42.3463 43.48 41.9996 43.48C41.8263 43.48 41.653 43.44 41.5063 43.3467C41.0263 43.0667 40.8663 42.4533 41.133 41.9867L42.2663 40.0133H41.1463C40.4796 40.0133 39.933 39.72 39.6396 39.2267C39.3463 38.72 39.373 38.1067 39.7063 37.52L41.133 35.04C41.413 34.56 42.0263 34.4 42.493 34.6667C42.973 34.9467 43.133 35.56 42.8663 36.0267L41.733 38H42.853C43.5196 38 44.0663 38.2933 44.3596 38.7867C44.653 39.2933 44.6263 39.92 44.293 40.4933Z" fill="url(#paint2_linear_1281_3560)"></path><defs><linearGradient id="paint0_linear_1281_3560" x1="-7.69945" y1="-0.0305115" x2="88.5969" y2="5.98013" gradientUnits="userSpaceOnUse"><stop stop-color="#82CDFF"></stop><stop offset="1" stop-color="#6060EA"></stop></linearGradient><linearGradient id="paint1_linear_1281_3560" x1="35.6808" y1="51.8658" x2="47.2964" y2="54.9684" gradientUnits="userSpaceOnUse"><stop stop-color="#82CDFF"></stop><stop offset="1" stop-color="#6060EA"></stop></linearGradient><linearGradient id="paint2_linear_1281_3560" x1="29.1511" y1="27.6614" x2="54.3182" y2="29.128" gradientUnits="userSpaceOnUse"><stop stop-color="#82CDFF"></stop><stop offset="1" stop-color="#6060EA"></stop></linearGradient></defs></svg>