<svg xmlns="http://www.w3.org/2000/svg" width="82" height="82" viewBox="0 0 82 82" fill="none"><rect x="0.5" y="0.5" width="81" height="81" rx="40.5" stroke="url(#paint0_linear_2534_5431)"></rect><path d="M41.0013 27.6667C33.6546 27.6667 27.668 33.6534 27.668 41.0001C27.668 48.3467 33.6546 54.3334 41.0013 54.3334C48.348 54.3334 54.3346 48.3467 54.3346 41.0001C54.3346 33.6534 48.348 27.6667 41.0013 27.6667ZM46.8013 45.7601C46.6146 46.0801 46.2813 46.2534 45.9346 46.2534C45.7613 46.2534 45.588 46.2134 45.428 46.1067L41.2946 43.6401C40.268 43.0267 39.508 41.6801 39.508 40.4934V35.0267C39.508 34.4801 39.9613 34.0267 40.508 34.0267C41.0546 34.0267 41.508 34.4801 41.508 35.0267V40.4934C41.508 40.9734 41.908 41.6801 42.3213 41.9201L46.4546 44.3867C46.9346 44.6667 47.0946 45.2801 46.8013 45.7601Z" fill="url(#paint1_linear_2534_5431)"></path><defs><linearGradient id="paint0_linear_2534_5431" x1="-8.19945" y1="-0.0305115" x2="88.0969" y2="5.98013" gradientUnits="userSpaceOnUse"><stop stop-color="#82CDFF"></stop><stop offset="1" stop-color="#6060EA"></stop></linearGradient><linearGradient id="paint1_linear_2534_5431" x1="25.0015" y1="27.6568" x2="56.3174" y2="29.6115" gradientUnits="userSpaceOnUse"><stop stop-color="#82CDFF"></stop><stop offset="1" stop-color="#6060EA"></stop></linearGradient></defs></svg>