<svg xmlns="http://www.w3.org/2000/svg" width="216" height="69" viewBox="0 0 216 69" fill="none"><path d="M27.5555 26.047C33.165 26.047 37.8888 29.4872 37.8888 35.4829H16.8285C17.8126 29.3889 22.0444 26.047 27.5555 26.047ZM53.8316 50.0299H35.9205C34.5427 52.9786 31.8856 55.3376 27.1618 55.3376C21.7491 55.3376 17.3206 51.9957 16.7301 44.8205H54.8157C55.0125 43.1496 55.1109 41.4786 55.1109 39.906C55.1109 23.1966 43.7935 12.5812 27.7523 12.5812C11.4158 12.5812 0 23.3932 0 40.7906C0 58.188 11.6127 69 27.7523 69C41.4316 69 51.1744 60.7436 53.8316 50.0299Z" fill="white"></path><path d="M60.6428 40.6923C60.6428 57.9915 71.3697 69 84.7538 69C92.922 69 98.7283 65.265 101.779 60.4487V68.2137H118.608V13.3675H101.779V21.1325C98.8268 16.3162 93.0204 12.5812 84.8522 12.5812C71.3697 12.5812 60.6428 23.3932 60.6428 40.6923ZM101.779 40.7906C101.779 49.5385 96.1696 54.3547 89.7728 54.3547C83.4744 54.3547 77.7665 49.4402 77.7665 40.6923C77.7665 31.9444 83.4744 27.2265 89.7728 27.2265C96.1696 27.2265 101.779 32.0427 101.779 40.7906Z" fill="white"></path><path d="M133.439 49.1453C133.439 63.3974 141.411 68.2137 152.827 68.2137H161.389V53.9615H155.385C151.646 53.9615 150.268 52.5855 150.268 49.3419V27.3248H161.29V13.3675H150.268V0H133.439V13.3675H126.747V27.3248H133.439V49.1453Z" fill="white"></path><path d="M215.343 52.2906C215.048 31.8462 185.327 38.0385 185.327 29.2906C185.327 26.6367 187.492 25.0641 191.429 25.0641C196.153 25.0641 199.007 27.5214 199.499 31.2564H215.048C213.965 20.4444 206.092 12.5812 191.921 12.5812C177.553 12.5812 169.581 20.2479 169.581 29.5855C169.581 49.735 199.499 43.3462 199.499 52.1923C199.499 54.6496 197.235 56.6154 192.905 56.6154C188.28 56.6154 184.835 54.0598 184.442 50.2265H167.81C168.597 60.8419 178.439 69 193.102 69C206.88 69 215.343 61.8248 215.343 52.2906Z" fill="white"></path></svg>