<svg xmlns="http://www.w3.org/2000/svg" width="82" height="82" viewBox="0 0 82 82" fill="none"><rect x="0.5" y="0.5" width="81" height="81" rx="40.5" stroke="url(#paint0_linear_2534_5460)"></rect><path d="M50.8263 31.5199L43.0129 28.0399C41.8663 27.5332 40.1329 27.5332 38.9862 28.0399L31.1729 31.5199C29.1996 32.3999 28.9062 33.5999 28.9062 34.2399C28.9062 34.8799 29.1996 36.0799 31.1729 36.9599L38.9862 40.4399C39.5596 40.6932 40.2796 40.8266 40.9996 40.8266C41.7196 40.8266 42.4396 40.6932 43.0129 40.4399L50.8263 36.9599C52.7996 36.0799 53.0929 34.8799 53.0929 34.2399C53.0929 33.5999 52.8129 32.3999 50.8263 31.5199Z" fill="url(#paint1_linear_2534_5460)"></path><path d="M41.0004 47.7201C40.4938 47.7201 39.9871 47.6134 39.5204 47.4134L30.5338 43.4134C29.1604 42.8001 28.0938 41.1601 28.0938 39.6534C28.0938 39.1067 28.5338 38.6667 29.0804 38.6667C29.6271 38.6667 30.0671 39.1067 30.0671 39.6534C30.0671 40.3734 30.6671 41.3067 31.3338 41.6001L40.3204 45.6001C40.7471 45.7867 41.2404 45.7867 41.6671 45.6001L50.6538 41.6001C51.3204 41.3067 51.9204 40.3867 51.9204 39.6534C51.9204 39.1067 52.3604 38.6667 52.9071 38.6667C53.4538 38.6667 53.8938 39.1067 53.8938 39.6534C53.8938 41.1467 52.8271 42.8001 51.4538 43.4134L42.4671 47.4134C42.0138 47.6134 41.5071 47.7201 41.0004 47.7201Z" fill="url(#paint2_linear_2534_5460)"></path><path d="M41.0004 54.3334C40.4938 54.3334 39.9871 54.2267 39.5204 54.0267L30.5338 50.0267C29.0538 49.3734 28.0938 47.8934 28.0938 46.2667C28.0938 45.72 28.5338 45.28 29.0804 45.28C29.6271 45.28 30.0671 45.72 30.0671 46.2667C30.0671 47.1067 30.5604 47.8667 31.3338 48.2134L40.3204 52.2134C40.7471 52.4 41.2404 52.4 41.6671 52.2134L50.6538 48.2134C51.4138 47.88 51.9204 47.1067 51.9204 46.2667C51.9204 45.72 52.3604 45.28 52.9071 45.28C53.4538 45.28 53.8938 45.72 53.8938 46.2667C53.8938 47.8934 52.9338 49.36 51.4538 50.0267L42.4671 54.0267C42.0138 54.2267 41.5071 54.3334 41.0004 54.3334Z" fill="url(#paint3_linear_2534_5460)"></path><defs><linearGradient id="paint0_linear_2534_5460" x1="-8.19945" y1="-0.0305115" x2="88.0969" y2="5.98013" gradientUnits="userSpaceOnUse"><stop stop-color="#82CDFF"></stop><stop offset="1" stop-color="#6060EA"></stop></linearGradient><linearGradient id="paint1_linear_2534_5460" x1="26.4877" y1="27.655" x2="54.6319" y2="30.882" gradientUnits="userSpaceOnUse"><stop stop-color="#82CDFF"></stop><stop offset="1" stop-color="#6060EA"></stop></linearGradient><linearGradient id="paint2_linear_2534_5460" x1="25.5139" y1="38.6634" x2="54.9972" y2="43.9078" gradientUnits="userSpaceOnUse"><stop stop-color="#82CDFF"></stop><stop offset="1" stop-color="#6060EA"></stop></linearGradient><linearGradient id="paint3_linear_2534_5460" x1="25.5139" y1="45.2767" x2="54.9972" y2="50.5211" gradientUnits="userSpaceOnUse"><stop stop-color="#82CDFF"></stop><stop offset="1" stop-color="#6060EA"></stop></linearGradient></defs></svg>