<svg xmlns="http://www.w3.org/2000/svg" width="82" height="82" viewBox="0 0 82 82" fill="none"><rect x="0.5" y="0.5" width="81" height="81" rx="40.5" stroke="url(#paint0_linear_2534_5469)"></rect><path d="M47.3323 29.7467V27.6667C47.3323 27.1201 46.879 26.6667 46.3323 26.6667C45.7857 26.6667 45.3323 27.1201 45.3323 27.6667V29.6667H36.6657V27.6667C36.6657 27.1201 36.2123 26.6667 35.6657 26.6667C35.119 26.6667 34.6657 27.1201 34.6657 27.6667V29.7467C31.0657 30.0801 29.319 32.2267 29.0523 35.4134C29.0257 35.8001 29.3457 36.1201 29.719 36.1201H52.279C52.6657 36.1201 52.9857 35.7867 52.9457 35.4134C52.679 32.2267 50.9323 30.0801 47.3323 29.7467Z" fill="url(#paint1_linear_2534_5469)"></path><path d="M51.6667 38.1201H30.3333C29.6 38.1201 29 38.7201 29 39.4535V47.6668C29 51.6668 31 54.3335 35.6667 54.3335H46.3333C51 54.3335 53 51.6668 53 47.6668V39.4535C53 38.7201 52.4 38.1201 51.6667 38.1201ZM37.28 49.2801C37.2133 49.3334 37.1467 49.4001 37.08 49.4401C37 49.4935 36.92 49.5335 36.84 49.5601C36.76 49.6001 36.68 49.6268 36.6 49.6401C36.5067 49.6535 36.4267 49.6668 36.3333 49.6668C36.16 49.6668 35.9867 49.6268 35.8267 49.5601C35.6533 49.4935 35.52 49.4001 35.3867 49.2801C35.1467 49.0268 35 48.6801 35 48.3335C35 47.9868 35.1467 47.6401 35.3867 47.3868C35.52 47.2668 35.6533 47.1735 35.8267 47.1068C36.0667 47.0001 36.3333 46.9735 36.6 47.0268C36.68 47.0401 36.76 47.0668 36.84 47.1068C36.92 47.1335 37 47.1735 37.08 47.2268C37.1467 47.2801 37.2133 47.3335 37.28 47.3868C37.52 47.6401 37.6667 47.9868 37.6667 48.3335C37.6667 48.6801 37.52 49.0268 37.28 49.2801ZM37.28 44.6135C37.0267 44.8535 36.68 45.0001 36.3333 45.0001C35.9867 45.0001 35.64 44.8535 35.3867 44.6135C35.1467 44.3601 35 44.0135 35 43.6668C35 43.3201 35.1467 42.9735 35.3867 42.7201C35.76 42.3468 36.3467 42.2268 36.84 42.4401C37.0133 42.5068 37.16 42.6001 37.28 42.7201C37.52 42.9735 37.6667 43.3201 37.6667 43.6668C37.6667 44.0135 37.52 44.3601 37.28 44.6135ZM41.9467 49.2801C41.6933 49.5201 41.3467 49.6668 41 49.6668C40.6533 49.6668 40.3067 49.5201 40.0533 49.2801C39.8133 49.0268 39.6667 48.6801 39.6667 48.3335C39.6667 47.9868 39.8133 47.6401 40.0533 47.3868C40.5467 46.8935 41.4533 46.8935 41.9467 47.3868C42.1867 47.6401 42.3333 47.9868 42.3333 48.3335C42.3333 48.6801 42.1867 49.0268 41.9467 49.2801ZM41.9467 44.6135C41.88 44.6668 41.8133 44.7201 41.7467 44.7735C41.6667 44.8268 41.5867 44.8668 41.5067 44.8935C41.4267 44.9335 41.3467 44.9601 41.2667 44.9734C41.1733 44.9868 41.0933 45.0001 41 45.0001C40.6533 45.0001 40.3067 44.8535 40.0533 44.6135C39.8133 44.3601 39.6667 44.0135 39.6667 43.6668C39.6667 43.3201 39.8133 42.9735 40.0533 42.7201C40.1733 42.6001 40.32 42.5068 40.4933 42.4401C40.9867 42.2268 41.5733 42.3468 41.9467 42.7201C42.1867 42.9735 42.3333 43.3201 42.3333 43.6668C42.3333 44.0135 42.1867 44.3601 41.9467 44.6135ZM46.6133 49.2801C46.36 49.5201 46.0133 49.6668 45.6667 49.6668C45.32 49.6668 44.9733 49.5201 44.72 49.2801C44.48 49.0268 44.3333 48.6801 44.3333 48.3335C44.3333 47.9868 44.48 47.6401 44.72 47.3868C45.2133 46.8935 46.12 46.8935 46.6133 47.3868C46.8533 47.6401 47 47.9868 47 48.3335C47 48.6801 46.8533 49.0268 46.6133 49.2801ZM46.6133 44.6135C46.5467 44.6668 46.48 44.7201 46.4133 44.7735C46.3333 44.8268 46.2533 44.8668 46.1733 44.8935C46.0933 44.9335 46.0133 44.9601 45.9333 44.9734C45.84 44.9868 45.7467 45.0001 45.6667 45.0001C45.32 45.0001 44.9733 44.8535 44.72 44.6135C44.48 44.3601 44.3333 44.0135 44.3333 43.6668C44.3333 43.3201 44.48 42.9735 44.72 42.7201C44.8533 42.6001 44.9867 42.5068 45.16 42.4401C45.4 42.3335 45.6667 42.3068 45.9333 42.3601C46.0133 42.3735 46.0933 42.4001 46.1733 42.4401C46.2533 42.4668 46.3333 42.5068 46.4133 42.5601C46.48 42.6135 46.5467 42.6668 46.6133 42.7201C46.8533 42.9735 47 43.3201 47 43.6668C47 44.0135 46.8533 44.3601 46.6133 44.6135Z" fill="url(#paint2_linear_2534_5469)"></path><defs><linearGradient id="paint0_linear_2534_5469" x1="-8.19945" y1="-0.0305115" x2="88.0969" y2="5.98013" gradientUnits="userSpaceOnUse"><stop stop-color="#82CDFF"></stop><stop offset="1" stop-color="#6060EA"></stop></linearGradient><linearGradient id="paint1_linear_2534_5469" x1="26.6611" y1="26.6632" x2="54.1508" y2="31.001" gradientUnits="userSpaceOnUse"><stop stop-color="#82CDFF"></stop><stop offset="1" stop-color="#6060EA"></stop></linearGradient><linearGradient id="paint2_linear_2534_5469" x1="26.6002" y1="38.1141" x2="54.6548" y2="40.7062" gradientUnits="userSpaceOnUse"><stop stop-color="#82CDFF"></stop><stop offset="1" stop-color="#6060EA"></stop></linearGradient></defs></svg>